<?xml version="1.0" encoding="utf-8"?>
<svg version="1.1" xmlns:xlink="http://www.w3.org/1999/xlink" width="18px" height="25px" xmlns="http://www.w3.org/2000/svg">
  <g transform="matrix(1 0 0 1 -35 -114 )">
    <path d="M 10.3242187500001 23.603515625  C 10.69140625 23.2975260416666  10.8749999999999 22.9296875  10.8749999999999 22.4999999999999  C 10.8749999999999 22.0703125  10.69140625 21.7024739583332  10.3242187500001 21.3964843750001  C 9.95703124999996 21.0904947916666  9.51562500000006 20.9374999999999  9 20.9374999999999  C 8.48437499999994 20.9374999999999  8.04296875000004 21.0904947916666  7.67578124999995 21.3964843750001  C 7.30859375000001 21.7024739583332  7.12500000000005 22.0703125  7.12500000000005 22.4999999999999  C 7.12500000000005 22.9296875  7.30859375000001 23.2975260416666  7.67578124999995 23.603515625  C 8.04296875000004 23.9095052083333  8.48437499999994 24.0624999999999  9 24.0624999999999  C 9.51562500000006 24.0624999999999  9.95703124999996 23.9095052083333  10.3242187500001 23.603515625  Z M 15.5273437500001 19.8144531249999  C 15.67578125 19.6907552083333  15.75 19.5442708333333  15.75 19.3749999999999  L 15.75 5.62500000000009  C 15.75 5.45572916666669  15.67578125 5.30924479166669  15.5273437500001 5.18554687500009  C 15.3789062499999 5.06184895833333  15.2031249999999 5.00000000000003  15.0000000000001 5  L 2.99999999999995 5  C 2.79687500000007 5.00000000000003  2.62109375000007 5.06184895833333  2.47265624999995 5.18554687500009  C 2.32421874999999 5.30924479166669  2.25 5.45572916666669  2.25 5.62500000000009  L 2.25 19.3749999999999  C 2.25 19.5442708333333  2.32421874999999 19.6907552083333  2.47265624999995 19.8144531249999  C 2.62109375000007 19.9381510416667  2.79687500000007 20  2.99999999999995 20  L 15.0000000000001 20  C 15.2031249999999 20  15.3789062499999 19.9381510416667  15.5273437500001 19.8144531249999  Z M 10.8749999999999 3.125  C 11.1249999999999 3.125  11.25 3.02083333333343  11.25 2.81249999999997  C 11.25 2.60416666666667  11.1249999999999 2.5000000000001  10.8749999999999 2.5000000000001  L 7.12500000000005 2.5000000000001  C 6.87500000000007 2.5000000000001  6.75 2.60416666666667  6.75 2.81249999999997  C 6.75 3.02083333333343  6.87500000000007 3.125  7.12500000000005 3.125  L 10.8749999999999 3.125  Z M 17.1093750000001 0.742187500000095  C 17.7031250000001 1.23697916666667  18 1.82291666666667  18 2.5000000000001  L 18 22.4999999999999  C 18 23.1770833333333  17.7031250000001 23.7630208333333  17.1093750000001 24.2578124999999  C 16.515625 24.7526041666666  15.8125 25  15.0000000000001 25  L 2.99999999999995 25  C 2.18749999999996 25  1.48437499999996 24.7526041666666  0.89062499999995 24.2578124999999  C 0.296874999999929 23.7630208333333  0 23.1770833333333  0 22.4999999999999  L 0 2.5000000000001  C 0 1.82291666666667  0.296874999999929 1.23697916666667  0.89062499999995 0.742187500000095  C 1.48437499999996 0.24739583333336  2.18749999999996 0  2.99999999999995 0  L 15.0000000000001 0  C 15.8125 0  16.515625 0.24739583333336  17.1093750000001 0.742187500000095  Z " fill-rule="nonzero" fill="#aeaeae" stroke="none" transform="matrix(1 0 0 1 35 114 )" />
  </g>
</svg>