<?xml version="1.0" encoding="utf-8"?>
<svg version="1.1" xmlns:xlink="http://www.w3.org/1999/xlink" width="19px" height="21px" xmlns="http://www.w3.org/2000/svg">
  <g transform="matrix(1 0 0 1 -34 -173 )">
    <path d="M 5.27777777777779 6.68181818181816  L 5.27777777777779 9.54545454545446  L 13.7222222222222 9.54545454545446  L 13.7222222222222 6.68181818181816  C 13.7222222222222 5.62784090909092  13.3098958333334 4.72798295454554  12.4852430555556 3.98224431818184  C 11.6605902777778 3.23650568181816  10.6655092592593 2.86363636363647  9.5 2.86363636363647  C 8.33449074074069 2.86363636363647  7.33940972222221 3.23650568181816  6.51475694444441 3.98224431818184  C 5.69010416666662 4.72798295454554  5.27777777777779 5.62784090909092  5.27777777777779 6.68181818181816  Z M 18.5381944444444 9.96306818181816  C 18.8460648148148 10.2414772727272  19 10.5795454545455  19 10.9772727272726  L 19 19.5681818181818  C 19 19.9659090909091  18.8460648148148 20.3039772727272  18.5381944444444 20.5823863636365  C 18.2303240740741 20.8607954545454  17.8564814814815 21  17.4166666666666 21  L 1.58333333333338 21  C 1.14351851851848 21  0.769675925925931 20.8607954545454  0.461805555555586 20.5823863636365  C 0.15393518518524 20.3039772727272  0 19.9659090909091  0 19.5681818181818  L 0 10.9772727272726  C 0 10.5795454545455  0.15393518518524 10.2414772727272  0.461805555555586 9.96306818181816  C 0.769675925925931 9.68465909090909  1.14351851851848 9.54545454545446  1.58333333333338 9.54545454545446  L 2.11111111111117 9.54545454545446  L 2.11111111111117 6.68181818181816  C 2.11111111111117 4.85227272727276  2.83680555555559 3.28125  4.28819444444441 1.96875  C 5.73958333333338 0.65625  7.47685185185186 0  9.5 0  C 11.5231481481481 0  13.2604166666666 0.65625  14.7118055555556 1.96875  C 16.1631944444444 3.28125  16.8888888888888 4.85227272727276  16.8888888888888 6.68181818181816  L 16.8888888888888 9.54545454545446  L 17.4166666666666 9.54545454545446  C 17.8564814814815 9.54545454545446  18.2303240740741 9.68465909090909  18.5381944444444 9.96306818181816  Z " fill-rule="nonzero" fill="#aeaeae" stroke="none" transform="matrix(1 0 0 1 34 173 )" />
  </g>
</svg>