<?xml version="1.0" encoding="utf-8"?>
<svg version="1.1" xmlns:xlink="http://www.w3.org/1999/xlink" width="36px" height="23px" xmlns="http://www.w3.org/2000/svg">
  <g transform="matrix(1 0 0 1 -424 -242 )">
    <path d="M 19.5380859375 15.066796875  C 20.0126953125 13.934765625  20.25 12.7458333333333  20.25 11.5  C 20.25 10.2541666666667  20.0126953125 9.065234375  19.5380859375 7.933203125  C 19.0634765625 6.801171875  18.421875 5.821875  17.61328125 4.9953125  C 16.8046875 4.16875  15.8466796875 3.512890625  14.7392578125 3.027734375  C 13.6318359375 2.542578125  12.46875 2.3  11.25 2.3  C 10.03125 2.3  8.8681640625 2.542578125  7.7607421875 3.027734375  C 6.6533203125 3.512890625  5.6953125 4.16875  4.88671875 4.9953125  C 4.078125 5.821875  3.4365234375 6.801171875  2.9619140625 7.933203125  C 2.4873046875 9.065234375  2.25 10.2541666666667  2.25 11.5  C 2.25 12.7458333333333  2.4873046875 13.934765625  2.9619140625 15.066796875  C 3.4365234375 16.198828125  4.078125 17.178125  4.88671875 18.0046875  C 5.6953125 18.83125  6.6533203125 19.487109375  7.7607421875 19.972265625  C 8.8681640625 20.457421875  10.03125 20.7  11.25 20.7  C 12.46875 20.7  13.6318359375 20.457421875  14.7392578125 19.972265625  C 15.8466796875 19.487109375  16.8046875 18.83125  17.61328125 18.0046875  C 18.421875 17.178125  19.0634765625 16.198828125  19.5380859375 15.066796875  Z M 33.0380859375 15.066796875  C 33.5126953125 13.934765625  33.75 12.7458333333333  33.75 11.5  C 33.75 10.2541666666667  33.5126953125 9.065234375  33.0380859375 7.933203125  C 32.5634765625 6.801171875  31.921875 5.821875  31.11328125 4.9953125  C 30.3046875 4.16875  29.3466796875 3.512890625  28.2392578125 3.027734375  C 27.1318359375 2.542578125  25.96875 2.3  24.75 2.3  L 17.96484375 2.3  C 19.359375 3.378125  20.4638671875 4.71979166666666  21.2783203125 6.325  C 22.0927734375 7.93020833333333  22.5 9.65520833333333  22.5 11.5  C 22.5 13.3447916666667  22.0927734375 15.0697916666667  21.2783203125 16.675  C 20.4638671875 18.2802083333333  19.359375 19.621875  17.96484375 20.7  L 24.75 20.7  C 25.96875 20.7  27.1318359375 20.457421875  28.2392578125 19.972265625  C 29.3466796875 19.487109375  30.3046875 18.83125  31.11328125 18.0046875  C 31.921875 17.178125  32.5634765625 16.198828125  33.0380859375 15.066796875  Z M 35.103515625 7.034765625  C 35.701171875 8.454296875  36 9.94270833333333  36 11.5  C 36 13.0572916666667  35.701171875 14.545703125  35.103515625 15.965234375  C 34.505859375 17.384765625  33.7060546875 18.606640625  32.7041015625 19.630859375  C 31.7021484375 20.655078125  30.5068359375 21.47265625  29.1181640625 22.08359375  C 27.7294921875 22.69453125  26.2734375 23  24.75 23  L 11.25 23  C 9.7265625 23  8.2705078125 22.69453125  6.8818359375 22.08359375  C 5.4931640625 21.47265625  4.2978515625 20.655078125  3.2958984375 19.630859375  C 2.2939453125 18.606640625  1.494140625 17.384765625  0.896484375 15.965234375  C 0.298828125 14.545703125  0 13.0572916666667  0 11.5  C 0 9.94270833333333  0.298828125 8.454296875  0.896484375 7.034765625  C 1.494140625 5.615234375  2.2939453125 4.393359375  3.2958984375 3.369140625  C 4.2978515625 2.344921875  5.4931640625 1.52734375  6.8818359375 0.916406249999999  C 8.2705078125 0.305468750000001  9.7265625 0  11.25 0  L 24.75 0  C 26.2734375 0  27.7294921875 0.305468750000001  29.1181640625 0.916406249999999  C 30.5068359375 1.52734375  31.7021484375 2.344921875  32.7041015625 3.369140625  C 33.7060546875 4.393359375  34.505859375 5.615234375  35.103515625 7.034765625  Z " fill-rule="nonzero" fill="#000000" stroke="none" transform="matrix(1 0 0 1 424 242 )" />
  </g>
</svg>