<?xml version="1.0" encoding="utf-8"?>
<svg version="1.1" xmlns:xlink="http://www.w3.org/1999/xlink" width="100px" height="60px" xmlns="http://www.w3.org/2000/svg">
  <defs>
    <mask fill="white" id="clip13">
      <path d="M 0 60  L 0 7  C 0 3.08000000000001  3.08000000000001 0  7 0  C 7 0  60.3333333333333 0  87 0  C 91.3333333333333 0  100 0  100 0  L 100 60  L 0 60  Z " fill-rule="evenodd" />
    </mask>
  </defs>
  <g transform="matrix(1 0 0 1 -160 -140 )">
    <path d="M 0 60  L 0 7  C 0 3.08000000000001  3.08000000000001 0  7 0  C 7 0  60.3333333333333 0  87 0  C 91.3333333333333 0  100 0  100 0  L 100 60  L 0 60  Z " fill-rule="nonzero" fill="#ffffff" stroke="none" transform="matrix(1 0 0 1 160 140 )" />
    <path d="M 0 60  L 0 7  C 0 3.08000000000001  3.08000000000001 0  7 0  C 7 0  60.3333333333333 0  87 0  C 91.3333333333333 0  100 0  100 0  L 100 60  L 0 60  Z " stroke-width="2" stroke="#797979" fill="none" transform="matrix(1 0 0 1 160 140 )" mask="url(#clip13)" />
  </g>
</svg>