<?xml version="1.0" encoding="utf-8"?>
<svg version="1.1" xmlns:xlink="http://www.w3.org/1999/xlink" width="650px" height="339px" xmlns="http://www.w3.org/2000/svg">
  <g transform="matrix(1 0 0 1 -270 -251 )">
    <path d="M 595 251  C 777 251  920 325.58  920 420.5  C 920 515.42  777 590  595 590  C 413 590  270 515.42  270 420.5  C 270 325.58  413 251  595 251  Z " fill-rule="nonzero" fill="#ffffff" stroke="none" />
    <path d="M 595 251.5  C 776.72 251.5  919.5 325.86  919.5 420.5  C 919.5 515.14  776.72 589.5  595 589.5  C 413.28 589.5  270.5 515.14  270.5 420.5  C 270.5 325.86  413.28 251.5  595 251.5  Z " stroke-width="1" stroke="#02a7f0" fill="none" />
  </g>
</svg>