<?xml version="1.0" encoding="utf-8"?>
<svg version="1.1" xmlns:xlink="http://www.w3.org/1999/xlink" width="490px" height="255px" xmlns="http://www.w3.org/2000/svg">
  <g transform="matrix(1 0 0 1 -270 -293 )">
    <path d="M 515 293  C 652.2 293  760 349.1  760 420.5  C 760 491.9  652.2 548  515 548  C 377.8 548  270 491.9  270 420.5  C 270 349.1  377.8 293  515 293  Z " fill-rule="nonzero" fill="#ffffff" stroke="none" />
    <path d="M 515 293.5  C 651.92 293.5  759.5 349.38  759.5 420.5  C 759.5 491.62  651.92 547.5  515 547.5  C 378.08 547.5  270.5 491.62  270.5 420.5  C 270.5 349.38  378.08 293.5  515 293.5  Z " stroke-width="1" stroke="#02a7f0" fill="none" />
  </g>
</svg>