<?xml version="1.0" encoding="utf-8"?>
<svg version="1.1" xmlns:xlink="http://www.w3.org/1999/xlink" width="140px" height="99px" xmlns="http://www.w3.org/2000/svg">
  <g transform="matrix(1 0 0 1 -270 -371 )">
    <path d="M 340 371  C 379.2 371  410 392.78  410 420.5  C 410 448.22  379.2 470  340 470  C 300.8 470  270 448.22  270 420.5  C 270 392.78  300.8 371  340 371  Z " fill-rule="nonzero" fill="#ffffff" stroke="none" />
    <path d="M 340 371.5  C 378.92 371.5  409.5 393.06  409.5 420.5  C 409.5 447.94  378.92 469.5  340 469.5  C 301.08 469.5  270.5 447.94  270.5 420.5  C 270.5 393.06  301.08 371.5  340 371.5  Z " stroke-width="1" stroke="#02a7f0" fill="none" />
  </g>
</svg>