<?xml version="1.0" encoding="utf-8"?>
<svg version="1.1" xmlns:xlink="http://www.w3.org/1999/xlink" width="300px" height="190px" xmlns="http://www.w3.org/2000/svg">
  <g transform="matrix(1 0 0 1 -270 -325 )">
    <path d="M 420 325  C 504 325  570 366.8  570 420  C 570 473.2  504 515  420 515  C 336 515  270 473.2  270 420  C 270 366.8  336 325  420 325  Z " fill-rule="nonzero" fill="#ffffff" stroke="none" />
    <path d="M 420 325.5  C 503.72 325.5  569.5 367.08  569.5 420  C 569.5 472.92  503.72 514.5  420 514.5  C 336.28 514.5  270.5 472.92  270.5 420  C 270.5 367.08  336.28 325.5  420 325.5  Z " stroke-width="1" stroke="#02a7f0" fill="none" />
  </g>
</svg>