<?xml version="1.0" encoding="utf-8"?>
<svg version="1.1" xmlns:xlink="http://www.w3.org/1999/xlink" width="9px" height="9px" xmlns="http://www.w3.org/2000/svg">
  <g transform="matrix(1 0 0 1 -988 -235 )">
    <path d="M 0.692307692307692 6.91071428571428  L 0.692307692307692 8.35714285714286  L 2.25 8.35714285714286  L 2.25 6.91071428571428  L 0.692307692307692 6.91071428571428  Z M 2.59615384615385 6.91071428571428  L 2.59615384615385 8.35714285714286  L 4.32692307692308 8.35714285714286  L 4.32692307692308 6.91071428571428  L 2.59615384615385 6.91071428571428  Z M 0.692307692307692 4.98214285714286  L 0.692307692307692 6.58928571428572  L 2.25 6.58928571428572  L 2.25 4.98214285714286  L 0.692307692307692 4.98214285714286  Z M 2.59615384615385 4.98214285714286  L 2.59615384615385 6.58928571428572  L 4.32692307692308 6.58928571428572  L 4.32692307692308 4.98214285714286  L 2.59615384615385 4.98214285714286  Z M 0.692307692307692 3.21428571428571  L 0.692307692307692 4.66071428571428  L 2.25 4.66071428571428  L 2.25 3.21428571428571  L 0.692307692307692 3.21428571428571  Z M 4.67307692307692 6.91071428571428  L 4.67307692307692 8.35714285714286  L 6.40384615384615 8.35714285714286  L 6.40384615384615 6.91071428571428  L 4.67307692307692 6.91071428571428  Z M 2.59615384615385 3.21428571428571  L 2.59615384615385 4.66071428571428  L 4.32692307692308 4.66071428571428  L 4.32692307692308 3.21428571428571  L 2.59615384615385 3.21428571428571  Z M 6.75 6.91071428571428  L 6.75 8.35714285714286  L 8.30769230769231 8.35714285714286  L 8.30769230769231 6.91071428571428  L 6.75 6.91071428571428  Z M 4.67307692307692 4.98214285714286  L 4.67307692307692 6.58928571428572  L 6.40384615384615 6.58928571428572  L 6.40384615384615 4.98214285714286  L 4.67307692307692 4.98214285714286  Z M 2.71784855769231 2.36300223214286  C 2.75210336538462 2.33119419642857  2.76923076923077 2.29352678571428  2.76923076923077 2.25  L 2.76923076923077 0.803571428571429  C 2.76923076923077 0.760044642857143  2.75210336538462 0.722377232142857  2.71784855769231 0.690569196428571  C 2.68359375 0.658761160714285  2.64302884615385 0.642857142857143  2.59615384615385 0.642857142857143  L 2.25 0.642857142857143  C 2.203125 0.642857142857143  2.16256009615385 0.658761160714285  2.12830528846154 0.690569196428571  C 2.09405048076923 0.722377232142857  2.07692307692308 0.760044642857143  2.07692307692308 0.803571428571429  L 2.07692307692308 2.25  C 2.07692307692308 2.29352678571428  2.09405048076923 2.33119419642857  2.12830528846154 2.36300223214286  C 2.16256009615385 2.39481026785714  2.203125 2.41071428571429  2.25 2.41071428571429  L 2.59615384615385 2.41071428571429  C 2.64302884615385 2.41071428571429  2.68359375 2.39481026785714  2.71784855769231 2.36300223214286  Z M 6.75 4.98214285714286  L 6.75 6.58928571428572  L 8.30769230769231 6.58928571428572  L 8.30769230769231 4.98214285714286  L 6.75 4.98214285714286  Z M 4.67307692307692 3.21428571428571  L 4.67307692307692 4.66071428571428  L 6.40384615384615 4.66071428571428  L 6.40384615384615 3.21428571428571  L 4.67307692307692 3.21428571428571  Z M 6.75 3.21428571428571  L 6.75 4.66071428571428  L 8.30769230769231 4.66071428571428  L 8.30769230769231 3.21428571428571  L 6.75 3.21428571428571  Z M 6.87169471153846 2.36300223214286  C 6.90594951923077 2.33119419642857  6.92307692307692 2.29352678571428  6.92307692307692 2.25  L 6.92307692307692 0.803571428571429  C 6.92307692307692 0.760044642857143  6.90594951923077 0.722377232142857  6.87169471153846 0.690569196428571  C 6.83743990384615 0.658761160714285  6.796875 0.642857142857143  6.75 0.642857142857143  L 6.40384615384615 0.642857142857143  C 6.35697115384616 0.642857142857143  6.31640625 0.658761160714285  6.28215144230769 0.690569196428571  C 6.24789663461539 0.722377232142857  6.23076923076923 0.760044642857143  6.23076923076923 0.803571428571429  L 6.23076923076923 2.25  C 6.23076923076923 2.29352678571428  6.24789663461539 2.33119419642857  6.28215144230769 2.36300223214286  C 6.31640625 2.39481026785714  6.35697115384616 2.41071428571429  6.40384615384615 2.41071428571429  L 6.75 2.41071428571429  C 6.796875 2.41071428571429  6.83743990384615 2.39481026785714  6.87169471153846 2.36300223214286  Z M 8.79447115384615 1.4765625  C 8.93149038461539 1.60379464285714  9 1.75446428571429  9 1.92857142857143  L 9 8.35714285714286  C 9 8.53125  8.93149038461539 8.68191964285714  8.79447115384615 8.80915178571429  C 8.65745192307692 8.93638392857143  8.49519230769231 9  8.30769230769231 9  L 0.692307692307692 9  C 0.504807692307692 9  0.342548076923077 8.93638392857143  0.205528846153846 8.80915178571429  C 0.0685096153846154 8.68191964285714  0 8.53125  0 8.35714285714286  L 0 1.92857142857143  C 0 1.75446428571429  0.0685096153846154 1.60379464285714  0.205528846153846 1.4765625  C 0.342548076923077 1.34933035714286  0.504807692307692 1.28571428571429  0.692307692307692 1.28571428571429  L 1.38461538461538 1.28571428571429  L 1.38461538461538 0.803571428571429  C 1.38461538461538 0.582589285714286  1.46935096153846 0.393415178571428  1.63882211538462 0.236049107142857  C 1.80829326923077 0.0786830357142858  2.01201923076923 0  2.25 0  L 2.59615384615385 0  C 2.83413461538462 0  3.03786057692308 0.0786830357142858  3.20733173076923 0.236049107142857  C 3.37680288461539 0.393415178571428  3.46153846153846 0.582589285714286  3.46153846153846 0.803571428571429  L 3.46153846153846 1.28571428571429  L 5.53846153846154 1.28571428571429  L 5.53846153846154 0.803571428571429  C 5.53846153846154 0.582589285714286  5.62319711538462 0.393415178571428  5.79266826923077 0.236049107142857  C 5.96213942307692 0.0786830357142858  6.16586538461539 0  6.40384615384615 0  L 6.75 0  C 6.98798076923077 0  7.19170673076923 0.0786830357142858  7.36117788461539 0.236049107142857  C 7.53064903846154 0.393415178571428  7.61538461538461 0.582589285714286  7.61538461538461 0.803571428571429  L 7.61538461538461 1.28571428571429  L 8.30769230769231 1.28571428571429  C 8.49519230769231 1.28571428571429  8.65745192307692 1.34933035714286  8.79447115384615 1.4765625  Z " fill-rule="nonzero" fill="#333333" stroke="none" transform="matrix(1 0 0 1 988 235 )" />
  </g>
</svg>