<?xml version="1.0" encoding="utf-8"?>
<svg version="1.1" xmlns:xlink="http://www.w3.org/1999/xlink" width="12px" height="9px" xmlns="http://www.w3.org/2000/svg">
  <g transform="matrix(1 0 0 1 -1159 -235 )">
    <path d="M 0.923076923076923 6.91071428571428  L 0.923076923076923 8.35714285714286  L 3 8.35714285714286  L 3 6.91071428571428  L 0.923076923076923 6.91071428571428  Z M 3.46153846153846 6.91071428571428  L 3.46153846153846 8.35714285714286  L 5.76923076923077 8.35714285714286  L 5.76923076923077 6.91071428571428  L 3.46153846153846 6.91071428571428  Z M 0.923076923076923 4.98214285714286  L 0.923076923076923 6.58928571428572  L 3 6.58928571428572  L 3 4.98214285714286  L 0.923076923076923 4.98214285714286  Z M 3.46153846153846 4.98214285714286  L 3.46153846153846 6.58928571428572  L 5.76923076923077 6.58928571428572  L 5.76923076923077 4.98214285714286  L 3.46153846153846 4.98214285714286  Z M 0.923076923076923 3.21428571428571  L 0.923076923076923 4.66071428571428  L 3 4.66071428571428  L 3 3.21428571428571  L 0.923076923076923 3.21428571428571  Z M 6.23076923076923 6.91071428571428  L 6.23076923076923 8.35714285714286  L 8.53846153846154 8.35714285714286  L 8.53846153846154 6.91071428571428  L 6.23076923076923 6.91071428571428  Z M 3.46153846153846 3.21428571428571  L 3.46153846153846 4.66071428571428  L 5.76923076923077 4.66071428571428  L 5.76923076923077 3.21428571428571  L 3.46153846153846 3.21428571428571  Z M 9 6.91071428571428  L 9 8.35714285714286  L 11.0769230769231 8.35714285714286  L 11.0769230769231 6.91071428571428  L 9 6.91071428571428  Z M 6.23076923076923 4.98214285714286  L 6.23076923076923 6.58928571428572  L 8.53846153846154 6.58928571428572  L 8.53846153846154 4.98214285714286  L 6.23076923076923 4.98214285714286  Z M 3.62379807692308 2.36300223214286  C 3.66947115384615 2.33119419642857  3.69230769230769 2.29352678571428  3.69230769230769 2.25  L 3.69230769230769 0.803571428571429  C 3.69230769230769 0.760044642857143  3.66947115384615 0.722377232142857  3.62379807692308 0.690569196428571  C 3.578125 0.658761160714285  3.52403846153846 0.642857142857143  3.46153846153846 0.642857142857143  L 3 0.642857142857143  C 2.9375 0.642857142857143  2.88341346153846 0.658761160714285  2.83774038461538 0.690569196428571  C 2.79206730769231 0.722377232142857  2.76923076923077 0.760044642857143  2.76923076923077 0.803571428571429  L 2.76923076923077 2.25  C 2.76923076923077 2.29352678571428  2.79206730769231 2.33119419642857  2.83774038461538 2.36300223214286  C 2.88341346153846 2.39481026785714  2.9375 2.41071428571429  3 2.41071428571429  L 3.46153846153846 2.41071428571429  C 3.52403846153846 2.41071428571429  3.578125 2.39481026785714  3.62379807692308 2.36300223214286  Z M 9 4.98214285714286  L 9 6.58928571428572  L 11.0769230769231 6.58928571428572  L 11.0769230769231 4.98214285714286  L 9 4.98214285714286  Z M 6.23076923076923 3.21428571428571  L 6.23076923076923 4.66071428571428  L 8.53846153846154 4.66071428571428  L 8.53846153846154 3.21428571428571  L 6.23076923076923 3.21428571428571  Z M 9 3.21428571428571  L 9 4.66071428571428  L 11.0769230769231 4.66071428571428  L 11.0769230769231 3.21428571428571  L 9 3.21428571428571  Z M 9.16225961538461 2.36300223214286  C 9.20793269230769 2.33119419642857  9.23076923076923 2.29352678571428  9.23076923076923 2.25  L 9.23076923076923 0.803571428571429  C 9.23076923076923 0.760044642857143  9.20793269230769 0.722377232142857  9.16225961538461 0.690569196428571  C 9.11658653846154 0.658761160714285  9.0625 0.642857142857143  9 0.642857142857143  L 8.53846153846154 0.642857142857143  C 8.47596153846154 0.642857142857143  8.421875 0.658761160714285  8.37620192307692 0.690569196428571  C 8.33052884615385 0.722377232142857  8.30769230769231 0.760044642857143  8.30769230769231 0.803571428571429  L 8.30769230769231 2.25  C 8.30769230769231 2.29352678571428  8.33052884615385 2.33119419642857  8.37620192307692 2.36300223214286  C 8.421875 2.39481026785714  8.47596153846154 2.41071428571429  8.53846153846154 2.41071428571429  L 9 2.41071428571429  C 9.0625 2.41071428571429  9.11658653846154 2.39481026785714  9.16225961538461 2.36300223214286  Z M 11.7259615384615 1.4765625  C 11.9086538461538 1.60379464285714  12 1.75446428571429  12 1.92857142857143  L 12 8.35714285714286  C 12 8.53125  11.9086538461538 8.68191964285714  11.7259615384615 8.80915178571429  C 11.5432692307692 8.93638392857143  11.3269230769231 9  11.0769230769231 9  L 0.923076923076923 9  C 0.673076923076923 9  0.456730769230769 8.93638392857143  0.274038461538462 8.80915178571429  C 0.0913461538461538 8.68191964285714  0 8.53125  0 8.35714285714286  L 0 1.92857142857143  C 0 1.75446428571429  0.0913461538461538 1.60379464285714  0.274038461538462 1.4765625  C 0.456730769230769 1.34933035714286  0.673076923076923 1.28571428571429  0.923076923076923 1.28571428571429  L 1.84615384615385 1.28571428571429  L 1.84615384615385 0.803571428571429  C 1.84615384615385 0.582589285714286  1.95913461538462 0.393415178571428  2.18509615384615 0.236049107142857  C 2.41105769230769 0.0786830357142858  2.68269230769231 0  3 0  L 3.46153846153846 0  C 3.77884615384615 0  4.05048076923077 0.0786830357142858  4.27644230769231 0.236049107142857  C 4.50240384615385 0.393415178571428  4.61538461538462 0.582589285714286  4.61538461538462 0.803571428571429  L 4.61538461538462 1.28571428571429  L 7.38461538461539 1.28571428571429  L 7.38461538461539 0.803571428571429  C 7.38461538461539 0.582589285714286  7.49759615384615 0.393415178571428  7.72355769230769 0.236049107142857  C 7.94951923076923 0.0786830357142858  8.22115384615385 0  8.53846153846154 0  L 9 0  C 9.31730769230769 0  9.58894230769231 0.0786830357142858  9.81490384615385 0.236049107142857  C 10.0408653846154 0.393415178571428  10.1538461538462 0.582589285714286  10.1538461538462 0.803571428571429  L 10.1538461538462 1.28571428571429  L 11.0769230769231 1.28571428571429  C 11.3269230769231 1.28571428571429  11.5432692307692 1.34933035714286  11.7259615384615 1.4765625  Z " fill-rule="nonzero" fill="#333333" stroke="none" transform="matrix(1 0 0 1 1159 235 )" />
  </g>
</svg>