<?xml version="1.0" encoding="utf-8"?>
<svg version="1.1" xmlns:xlink="http://www.w3.org/1999/xlink" width="27px" height="27px" xmlns="http://www.w3.org/2000/svg">
  <g transform="matrix(1 0 0 1 -133 -343 )">
    <path d="M 22.166015625 15.416015625  C 22.388671875 15.193359375  22.5 14.9296875  22.5 14.625  L 22.5 12.375  C 22.5 12.0703125  22.388671875 11.806640625  22.166015625 11.583984375  C 21.943359375 11.361328125  21.6796875 11.25  21.375 11.25  L 5.625 11.25  C 5.3203125 11.25  5.056640625 11.361328125  4.833984375 11.583984375  C 4.611328125 11.806640625  4.5 12.0703125  4.5 12.375  L 4.5 14.625  C 4.5 14.9296875  4.611328125 15.193359375  4.833984375 15.416015625  C 5.056640625 15.638671875  5.3203125 15.75  5.625 15.75  L 21.375 15.75  C 21.6796875 15.75  21.943359375 15.638671875  22.166015625 15.416015625  Z M 25.5146484375 1.4853515625  C 26.5048828125 2.4755859375  27 3.66796875  27 5.0625  L 27 21.9375  C 27 23.33203125  26.5048828125 24.5244140625  25.5146484375 25.5146484375  C 24.5244140625 26.5048828125  23.33203125 27  21.9375 27  L 5.0625 27  C 3.66796875 27  2.4755859375 26.5048828125  1.4853515625 25.5146484375  C 0.4951171875 24.5244140625  0 23.33203125  0 21.9375  L 0 5.0625  C 0 3.66796875  0.4951171875 2.4755859375  1.4853515625 1.4853515625  C 2.4755859375 0.495117187499998  3.66796875 0  5.0625 0  L 21.9375 0  C 23.33203125 0  24.5244140625 0.495117187499998  25.5146484375 1.4853515625  Z " fill-rule="nonzero" fill="#000000" stroke="none" transform="matrix(1 0 0 1 133 343 )" />
  </g>
</svg>