<?xml version="1.0" encoding="utf-8"?>
<svg version="1.1" xmlns:xlink="http://www.w3.org/1999/xlink" width="163px" height="170px" xmlns="http://www.w3.org/2000/svg">
  <g transform="matrix(1 0 0 1 -1007 -1548 )">
    <path d="M 132.127341920375 106.166945840313  C 135.022150663544 99.427694025684  136.469555035129 92.356225572306  136.469555035129 84.9525404801787  C 136.469555035129 77.5488553880514  135.022150663544 70.4773869346734  132.127341920375 63.7381351200447  C 129.232533177205 56.998883305416  125.319769711163 51.1771822073329  120.389051522248 46.2730318257956  C 115.458333333333 41.3688814442583  109.605093676815 37.4772008189093  102.829332552693 34.5979899497488  C 96.0535714285714 31.7187790805881  88.943793911007 30.2791736460078  81.5 30.2791736460078  C 74.056206088993 30.2791736460078  66.9464285714286 31.7187790805881  60.1706674473068 34.5979899497488  C 53.394906323185 37.4772008189093  47.5416666666667 41.3688814442583  42.6109484777518 46.2730318257956  C 37.6802302888369 51.1771822073329  33.7674668227947 56.998883305416  30.8726580796253 63.7381351200447  C 27.9778493364559 70.4773869346734  26.5304449648712 77.5488553880514  26.5304449648712 84.9525404801787  C 26.5304449648712 92.356225572306  27.9778493364559 99.427694025684  30.8726580796253 106.166945840313  C 33.7674668227947 112.906197654941  37.6802302888369 118.727898753024  42.6109484777518 123.632049134562  C 47.5416666666667 128.536199516099  53.394906323185 132.427880141448  60.1706674473068 135.307091010609  C 66.9464285714286 138.186301879769  74.056206088993 139.62590731435  81.5 139.62590731435  C 88.943793911007 139.62590731435  96.0535714285714 138.186301879769  102.829332552693 135.307091010609  C 109.605093676815 132.427880141448  115.458333333333 128.536199516099  120.389051522248 123.632049134562  C 125.319769711163 118.727898753024  129.232533177205 112.906197654941  132.127341920375 106.166945840313  Z M 162.427400468384 108.492462311558  C 163 109.251814628699  163.127244340359 110.169365345245  162.809133489461 111.245114461195  C 162.554644808743 112.194304857621  161.918423106948 112.827098455239  160.900468384075 113.143495254048  L 133 122.255723059743  L 133 151.300949190396  C 133.033957845433 152.313418946585  132.620413739266 153.136050623488  131.793325526932 153.768844221106  C 130.838992974239 154.401637818723  129.916471506635 154.528196538247  129.025761124122 154.148520379676  L 101.15925058548 145.226130653266  L 83.9812646370023 168.766052484645  C 83.3450429352069 169.588684161548  82.5179547228728 170  81.5 170  C 80.4820452771273 170  79.6549570647931 169.588684161548  79.0187353629977 168.766052484645  L 61.8407494145199 145.226130653266  L 33.9742388758782 154.148520379676  C 33.0835284933646 154.528196538247  32.1610070257611 154.401637818723  31.2066744730679 153.768844221106  C 30.3795862607338 153.136050623488  29.9660421545667 152.313418946585  30 151.300949190396  L 30 122.255723059743  L 2.09953161592506 113.143495254048  C 1.0815768930523 112.827098455239  0.44535519125683 112.194304857621  0.190866510538642 111.245114461195  C -0.127244340359094 110.169365345245  0 109.251814628699  0.572599531615925 108.492462311558  L 17.7505854800937 84.9525404801787  L 0.572599531615925 61.4126186487996  C 0 60.5899869718965  -0.127244340359094 59.6724362553508  0.190866510538642 58.6599664991625  C 0.44535519125683 57.7107761027359  1.0815768930523 57.0779825051182  2.09953161592506 56.7615857063093  L 30 47.6493579006142  L 30 18.6041317699609  C 29.9660421545667 17.5916620137726  30.3795862607338 16.7690303368695  31.2066744730679 16.1362367392518  C 32.1610070257611 15.5034431416341  33.0835284933646 15.3768844221105  33.9742388758782 15.7565605806812  L 61.8407494145199 24.678950307091  L 79.0187353629977 1.13902847571189  C 79.5913348946136 0.379676158570622  80.4184231069477 0  81.5 0  C 82.5815768930523 0  83.4086651053864 0.379676158570622  83.9812646370023 1.13902847571189  L 101.15925058548 24.678950307091  L 129.025761124122 15.7565605806812  C 129.916471506635 15.3768844221105  130.838992974239 15.5034431416341  131.793325526932 16.1362367392518  C 132.620413739266 16.7690303368695  133.033957845433 17.5916620137726  133 18.6041317699609  L 133 47.6493579006142  L 160.900468384075 56.7615857063093  C 161.918423106948 57.0779825051182  162.554644808743 57.7107761027359  162.809133489461 58.6599664991625  C 163.127244340359 59.6724362553508  163 60.5899869718965  162.427400468384 61.4126186487996  L 145.249414519906 84.9525404801787  L 162.427400468384 108.492462311558  Z " fill-rule="nonzero" fill="#000000" stroke="none" transform="matrix(1 0 0 1 1007 1548 )" />
  </g>
</svg>