<?xml version="1.0" encoding="utf-8"?>
<svg version="1.1" xmlns:xlink="http://www.w3.org/1999/xlink" width="102px" height="61px" xmlns="http://www.w3.org/2000/svg">
  <g transform="matrix(1 0 0 1 -250 -3172 )">
    <path d="M 19.55 40.6666666666667  C 20.1166666666667 40.6666666666667  20.4 40.9490740740741  20.4 41.5138888888889  L 20.4 46.5972222222222  C 20.4 47.162037037037  20.1166666666667 47.4444444444444  19.55 47.4444444444444  L 14.45 47.4444444444444  C 13.8833333333333 47.4444444444444  13.6 47.162037037037  13.6 46.5972222222222  L 13.6 41.5138888888889  C 13.6 40.9490740740741  13.8833333333333 40.6666666666667  14.45 40.6666666666667  L 19.55 40.6666666666667  Z M 26.35 28  C 26.9166666666667 27.1111111111111  27.2 27.3935185185185  27.2 27.9583333333333  L 27.2 33.0416666666667  C 27.2 33.6064814814815  26.9166666666667 33.8888888888889  26.35 33  L 14.45 33  C 13.8833333333333 33.8888888888889  13.6 33.6064814814815  13.6 33.0416666666667  L 13.6 27.9583333333333  C 13.6 27.3935185185185  13.8833333333333 27.1111111111111  14.45 28  L 26.35 28  Z M 19.55 13.5555555555556  C 20.1166666666667 13.5555555555556  20.4 13.837962962963  20.4 14.4027777777778  L 20.4 19.4861111111111  C 20.4 20.0509259259259  20.1166666666667 20.3333333333333  19.55 20.3333333333333  L 14.45 20.3333333333333  C 13.8833333333333 20.3333333333333  13.6 20.0509259259259  13.6 19.4861111111111  L 13.6 14.4027777777778  C 13.6 13.837962962963  13.8833333333333 13.5555555555556  14.45 13.5555555555556  L 19.55 13.5555555555556  Z M 73.95 40  C 74.5166666666667 40.6666666666667  74.8 40.9490740740741  74.8 41.5138888888889  L 74.8 46.5972222222222  C 74.8 47.162037037037  74.5166666666667 47.4444444444444  73.95 47  L 28.05 47  C 27.4833333333333 47.4444444444444  27.2 47.162037037037  27.2 46.5972222222222  L 27.2 41.5138888888889  C 27.2 40.9490740740741  27.4833333333333 40.6666666666667  28.05 40  L 73.95 40  Z M 39.95 27.1111111111111  C 40.5166666666667 27.1111111111111  40.8 27.3935185185185  40.8 27.9583333333333  L 40.8 33.0416666666667  C 40.8 33.6064814814815  40.5166666666667 33.8888888888889  39.95 33.8888888888889  L 34.85 33.8888888888889  C 34.2833333333333 33.8888888888889  34 33.6064814814815  34 33.0416666666667  L 34 27.9583333333333  C 34 27.3935185185185  34.2833333333333 27.1111111111111  34.85 27.1111111111111  L 39.95 27.1111111111111  Z M 33.15 13.5555555555556  C 33.7166666666667 13.5555555555556  34 13.837962962963  34 14.4027777777778  L 34 19.4861111111111  C 34 20.0509259259259  33.7166666666667 20.3333333333333  33.15 20.3333333333333  L 28.05 20.3333333333333  C 27.4833333333333 20.3333333333333  27.2 20.0509259259259  27.2 19.4861111111111  L 27.2 14.4027777777778  C 27.2 13.837962962963  27.4833333333333 13.5555555555556  28.05 13.5555555555556  L 33.15 13.5555555555556  Z M 53.55 27.1111111111111  C 54.1166666666667 27.1111111111111  54.4 27.3935185185185  54.4 27.9583333333333  L 54.4 33.0416666666667  C 54.4 33.6064814814815  54.1166666666667 33.8888888888889  53.55 33.8888888888889  L 48.45 33.8888888888889  C 47.8833333333333 33.8888888888889  47.6 33.6064814814815  47.6 33.0416666666667  L 47.6 27.9583333333333  C 47.6 27.3935185185185  47.8833333333333 27.1111111111111  48.45 27.1111111111111  L 53.55 27.1111111111111  Z M 46.75 13.5555555555556  C 47.3166666666667 13.5555555555556  47.6 13.837962962963  47.6 14.4027777777778  L 47.6 19.4861111111111  C 47.6 20.0509259259259  47.3166666666667 20.3333333333333  46.75 20.3333333333333  L 41.65 20.3333333333333  C 41.0833333333333 20.3333333333333  40.8 20.0509259259259  40.8 19.4861111111111  L 40.8 14.4027777777778  C 40.8 13.837962962963  41.0833333333333 13.5555555555556  41.65 13.5555555555556  L 46.75 13.5555555555556  Z M 67.15 27.1111111111111  C 67.7166666666667 27.1111111111111  68 27.3935185185185  68 27.9583333333333  L 68 33.0416666666667  C 68 33.6064814814815  67.7166666666667 33.8888888888889  67.15 33.8888888888889  L 62.05 33.8888888888889  C 61.4833333333333 33.8888888888889  61.2 33.6064814814815  61.2 33.0416666666667  L 61.2 27.9583333333333  C 61.2 27.3935185185185  61.4833333333333 27.1111111111111  62.05 27.1111111111111  L 67.15 27.1111111111111  Z M 87.55 40.6666666666667  C 88.1166666666667 40.6666666666667  88.4 40.9490740740741  88.4 41.5138888888889  L 88.4 46.5972222222222  C 88.4 47.162037037037  88.1166666666667 47.4444444444444  87.55 47.4444444444444  L 82.45 47.4444444444444  C 81.8833333333333 47.4444444444444  81.6 47.162037037037  81.6 46.5972222222222  L 81.6 41.5138888888889  C 81.6 40.9490740740741  81.8833333333333 40.6666666666667  82.45 40.6666666666667  L 87.55 40.6666666666667  Z M 60.35 13.5555555555556  C 60.9166666666667 13.5555555555556  61.2 13.837962962963  61.2 14.4027777777778  L 61.2 19.4861111111111  C 61.2 20.0509259259259  60.9166666666667 20.3333333333333  60.35 20.3333333333333  L 55.25 20.3333333333333  C 54.6833333333333 20.3333333333333  54.4 20.0509259259259  54.4 19.4861111111111  L 54.4 14.4027777777778  C 54.4 13.837962962963  54.6833333333333 13.5555555555556  55.25 13.5555555555556  L 60.35 13.5555555555556  Z M 73.95 13.5555555555556  C 74.5166666666667 13.5555555555556  74.8 13.837962962963  74.8 14.4027777777778  L 74.8 19.4861111111111  C 74.8 20.0509259259259  74.5166666666667 20.3333333333333  73.95 20.3333333333333  L 68.85 20.3333333333333  C 68.2833333333333 20.3333333333333  68 20.0509259259259  68 19.4861111111111  L 68 14.4027777777778  C 68 13.837962962963  68.2833333333333 13.5555555555556  68.85 13.5555555555556  L 73.95 13.5555555555556  Z M 87.55 13.5555555555556  C 88.1166666666667 13.5555555555556  88.4 13.837962962963  88 14.4027777777778  L 88 33.0416666666667  C 88.4 33.6064814814815  88.1166666666667 33.8888888888889  87.55 33  L 75.65 33  C 75.0833333333333 33.8888888888889  74.8 33.6064814814815  74.8 33.0416666666667  L 74.8 27.9583333333333  C 74.8 27.3935185185185  75.0833333333333 27.1111111111111  75.65 27.1111111111111  L 81 27.1111111111111  L 81 14.4027777777778  C 81.6 13.837962962963  81.8833333333333 13.5555555555556  82.45 13.5555555555556  L 87.55 13.5555555555556  Z M 7 54  L 95 54  L 95 7  L 7 7  L 7 54  Z M 100.0078125 1.98567708333334  C 101.3359375 3.30946180555555  102 4.90682870370369  102 6.77777777777778  L 102 54.2222222222222  C 102 56.0931712962963  101.3359375 57.6905381944444  100.0078125 59.0143229166667  C 98.6796875 60.3381076388889  97.0770833333333 61  95.2 61  L 6.8 61  C 4.92291666666667 61  3.3203125 60.3381076388889  1.9921875 59.0143229166667  C 0.6640625 57.6905381944444  0 56.0931712962963  0 54.2222222222222  L 0 6.77777777777778  C 0 4.90682870370369  0.6640625 3.30946180555555  1.9921875 1.98567708333334  C 3.3203125 0.66189236111111  4.92291666666667 0  6.8 0  L 95.2 0  C 97.0770833333333 0  98.6796875 0.66189236111111  100.0078125 1.98567708333334  Z " fill-rule="nonzero" fill="#000000" stroke="none" transform="matrix(1 0 0 1 250 3172 )" />
  </g>
</svg>