<?xml version="1.0" encoding="utf-8"?>
<svg version="1.1" xmlns:xlink="http://www.w3.org/1999/xlink" width="6px" height="4px" xmlns="http://www.w3.org/2000/svg">
  <g transform="matrix(1 0 0 1 -361 -395 )">
    <path d="M 5.888671875 0.131944444444445  C 5.962890625 0.219907407407407  6 0.324074074074074  6 0.444444444444445  C 6 0.564814814814815  5.962890625 0.668981481481481  5.888671875 0.756944444444445  L 3.263671875 3.86805555555556  C 3.189453125 3.95601851851852  3.1015625 4  3 4  C 2.8984375 4  2.810546875 3.95601851851852  2.736328125 3.86805555555556  L 0.111328125 0.756944444444445  C 0.037109375 0.668981481481481  0 0.564814814814815  0 0.444444444444445  C 0 0.324074074074074  0.037109375 0.219907407407407  0.111328125 0.131944444444445  C 0.185546875 0.043981481481481  0.2734375 0  0.375 0  L 5.625 0  C 5.7265625 0  5.814453125 0.043981481481481  5.888671875 0.131944444444445  Z " fill-rule="nonzero" fill="#ffffff" stroke="none" fill-opacity="0" transform="matrix(1 0 0 1 361 395 )" />
  </g>
</svg>