<?xml version="1.0" encoding="utf-8"?>
<svg version="1.1" xmlns:xlink="http://www.w3.org/1999/xlink" width="17px" height="14px" xmlns="http://www.w3.org/2000/svg">
  <defs>
    <filter x="265px" y="1649px" width="17px" height="14px" filterUnits="userSpaceOnUse" id="filter271">
      <feOffset dx="0" dy="0" in="SourceAlpha" result="shadowOffsetInner" />
      <feGaussianBlur stdDeviation="2.5" in="shadowOffsetInner" result="shadowGaussian" />
      <feComposite in2="shadowGaussian" operator="atop" in="SourceAlpha" result="shadowComposite" />
      <feColorMatrix type="matrix" values="0 0 0 0 0  0 0 0 0 0  0 0 0 0 0  0 0 0 0.349019607843137 0  " in="shadowComposite" />
    </filter>
    <g id="widget272">
      <path d="M 6.8701171875 3.24305555555556  C 6.95670572916667 3.33101851851852  7 3.43518518518518  7 3.55555555555556  C 7 3.67592592592593  6.95670572916667 3.78009259259259  6.8701171875 3.86805555555556  C 6.78352864583333 3.95601851851852  6.68098958333333 4  6.5625 4  L 0.4375 4  C 0.319010416666667 4  0.216471354166667 3.95601851851852  0.1298828125 3.86805555555556  C 0.0432942708333333 3.78009259259259  0 3.67592592592593  0 3.55555555555556  C 0 3.43518518518518  0.0432942708333333 3.33101851851852  0.1298828125 3.24305555555556  L 3.1923828125 0.131944444444445  C 3.27897135416667 0.043981481481481  3.38151041666667 0  3.5 0  C 3.61848958333333 0  3.72102864583333 0.043981481481481  3.8076171875 0.131944444444445  L 6.8701171875 3.24305555555556  Z " fill-rule="nonzero" fill="#ffffff" stroke="none" fill-opacity="0" transform="matrix(1 0 0 1 270 1654 )" />
    </g>
  </defs>
  <g transform="matrix(1 0 0 1 -265 -1649 )">
    <use xlink:href="#widget272" filter="url(#filter271)" />
    <use xlink:href="#widget272" />
  </g>
</svg>