<?xml version="1.0" encoding="utf-8"?>
<svg version="1.1" xmlns:xlink="http://www.w3.org/1999/xlink" width="17px" height="14px" xmlns="http://www.w3.org/2000/svg">
  <defs>
    <filter x="265px" y="1676px" width="17px" height="14px" filterUnits="userSpaceOnUse" id="filter269">
      <feOffset dx="0" dy="0" in="SourceAlpha" result="shadowOffsetInner" />
      <feGaussianBlur stdDeviation="2.5" in="shadowOffsetInner" result="shadowGaussian" />
      <feComposite in2="shadowGaussian" operator="atop" in="SourceAlpha" result="shadowComposite" />
      <feColorMatrix type="matrix" values="0 0 0 0 0  0 0 0 0 0  0 0 0 0 0  0 0 0 0.349019607843137 0  " in="shadowComposite" />
    </filter>
    <g id="widget270">
      <path d="M 6.8701171875 0.131944444444445  C 6.95670572916667 0.219907407407407  7 0.324074074074074  7 0.444444444444445  C 7 0.564814814814815  6.95670572916667 0.668981481481481  6.8701171875 0.756944444444445  L 3.8076171875 3.86805555555556  C 3.72102864583333 3.95601851851852  3.61848958333333 4  3.5 4  C 3.38151041666667 4  3.27897135416667 3.95601851851852  3.1923828125 3.86805555555556  L 0.1298828125 0.756944444444445  C 0.0432942708333333 0.668981481481481  0 0.564814814814815  0 0.444444444444445  C 0 0.324074074074074  0.0432942708333333 0.219907407407407  0.1298828125 0.131944444444445  C 0.216471354166667 0.043981481481481  0.319010416666667 0  0.4375 0  L 6.5625 0  C 6.68098958333333 0  6.78352864583333 0.043981481481481  6.8701171875 0.131944444444445  Z " fill-rule="nonzero" fill="#ffffff" stroke="none" fill-opacity="0" transform="matrix(1 0 0 1 270 1681 )" />
    </g>
  </defs>
  <g transform="matrix(1 0 0 1 -265 -1676 )">
    <use xlink:href="#widget270" filter="url(#filter269)" />
    <use xlink:href="#widget270" />
  </g>
</svg>