<?xml version="1.0" encoding="utf-8"?>
<svg version="1.1" xmlns:xlink="http://www.w3.org/1999/xlink" width="34px" height="20px" xmlns="http://www.w3.org/2000/svg">
  <g transform="matrix(1 0 0 1 -1299 -931 )">
    <path d="M 0.8466796875 13.8828125  C 0.2822265625 12.6484375  0 11.3541666666667  0 10  C 0 8.64583333333333  0.2822265625 7.3515625  0.8466796875 6.1171875  C 1.4111328125 4.8828125  2.16650390625 3.8203125  3.11279296875 2.9296875  C 4.05908203125 2.0390625  5.18798828125 1.328125  6.49951171875 0.796874999999999  C 7.81103515625 0.265625  9.18619791666667 0  10.625 0  L 23.375 0  C 24.8138020833333 0  26.18896484375 0.265625  27.50048828125 0.796874999999999  C 28.81201171875 1.328125  29.94091796875 2.0390625  30.88720703125 2.9296875  C 31.83349609375 3.8203125  32.5888671875 4.8828125  33.1533203125 6.1171875  C 33.7177734375 7.3515625  34 8.64583333333333  34 10  C 34 11.3541666666667  33.7177734375 12.6484375  33.1533203125 13.8828125  C 32.5888671875 15.1171875  31.83349609375 16.1796875  30.88720703125 17.0703125  C 29.94091796875 17.9609375  28.81201171875 18.671875  27.50048828125 19.203125  C 26.18896484375 19.734375  24.8138020833333 20  23.375 20  L 10.625 20  C 9.18619791666667 20  7.81103515625 19.734375  6.49951171875 19.203125  C 5.18798828125 18.671875  4.05908203125 17.9609375  3.11279296875 17.0703125  C 2.16650390625 16.1796875  1.4111328125 15.1171875  0.8466796875 13.8828125  Z M 20.07958984375 17.3671875  C 21.12548828125 17.7890625  22.2239583333333 18  23.375 18  C 24.5260416666667 18  25.62451171875 17.7890625  26.67041015625 17.3671875  C 27.71630859375 16.9453125  28.62109375 16.375  29.384765625 15.65625  C 30.1484375 14.9375  30.75439453125 14.0859375  31.20263671875 13.1015625  C 31.65087890625 12.1171875  31.875 11.0833333333333  31.875 10  C 31.875 8.91666666666667  31.65087890625 7.8828125  31.20263671875 6.8984375  C 30.75439453125 5.9140625  30.1484375 5.0625  29.384765625 4.34375  C 28.62109375 3.625  27.71630859375 3.0546875  26.67041015625 2.6328125  C 25.62451171875 2.2109375  24.5260416666667 2  23.375 2  C 22.2239583333333 2  21.12548828125 2.2109375  20.07958984375 2.6328125  C 19.03369140625 3.0546875  18.12890625 3.625  17.365234375 4.34375  C 16.6015625 5.0625  15.99560546875 5.9140625  15.54736328125 6.8984375  C 15.09912109375 7.8828125  14.875 8.91666666666667  14.875 10  C 14.875 11.0833333333333  15.09912109375 12.1171875  15.54736328125 13.1015625  C 15.99560546875 14.0859375  16.6015625 14.9375  17.365234375 15.65625  C 18.12890625 16.375  19.03369140625 16.9453125  20.07958984375 17.3671875  Z " fill-rule="nonzero" fill="#000000" stroke="none" transform="matrix(1 0 0 1 1299 931 )" />
  </g>
</svg>