<?xml version="1.0" encoding="utf-8"?>
<svg version="1.1" xmlns:xlink="http://www.w3.org/1999/xlink" width="38px" height="22px" xmlns="http://www.w3.org/2000/svg">
  <g transform="matrix(1 0 0 1 -1452 -1040 )">
    <path d="M 0.9462890625 15.27109375  C 0.3154296875 13.91328125  0 12.4895833333333  0 11  C 0 9.51041666666667  0.3154296875 8.08671875  0.9462890625 6.72890625  C 1.5771484375 5.37109375  2.42138671875 4.20234375  3.47900390625 3.22265625  C 4.53662109375 2.24296875  5.79833984375 1.4609375  7.26416015625 0.876562499999999  C 8.72998046875 0.2921875  10.2669270833333 0  11.875 0  L 26.125 0  C 27.7330729166667 0  29.27001953125 0.2921875  30.73583984375 0.876562499999999  C 32.20166015625 1.4609375  33.46337890625 2.24296875  34.52099609375 3.22265625  C 35.57861328125 4.20234375  36.4228515625 5.37109375  37.0537109375 6.72890625  C 37.6845703125 8.08671875  38 9.51041666666667  38 11  C 38 12.4895833333333  37.6845703125 13.91328125  37.0537109375 15.27109375  C 36.4228515625 16.62890625  35.57861328125 17.79765625  34.52099609375 18.77734375  C 33.46337890625 19.75703125  32.20166015625 20.5390625  30.73583984375 21.1234375  C 29.27001953125 21.7078125  27.7330729166667 22  26.125 22  L 11.875 22  C 10.2669270833333 22  8.72998046875 21.7078125  7.26416015625 21.1234375  C 5.79833984375 20.5390625  4.53662109375 19.75703125  3.47900390625 18.77734375  C 2.42138671875 17.79765625  1.5771484375 16.62890625  0.9462890625 15.27109375  Z M 22.44189453125 19.10390625  C 23.61083984375 19.56796875  24.8385416666667 19.8  26.125 19.8  C 27.4114583333333 19.8  28.63916015625 19.56796875  29.80810546875 19.10390625  C 30.97705078125 18.63984375  31.98828125 18.0125  32.841796875 17.221875  C 33.6953125 16.43125  34.37255859375 15.49453125  34.87353515625 14.41171875  C 35.37451171875 13.32890625  35.625 12.1916666666667  35.625 11  C 35.625 9.80833333333333  35.37451171875 8.67109375  34.87353515625 7.58828125  C 34.37255859375 6.50546875  33.6953125 5.56875  32.841796875 4.778125  C 31.98828125 3.9875  30.97705078125 3.36015625  29.80810546875 2.89609375  C 28.63916015625 2.43203125  27.4114583333333 2.2  26.125 2.2  C 24.8385416666667 2.2  23.61083984375 2.43203125  22.44189453125 2.89609375  C 21.27294921875 3.36015625  20.26171875 3.9875  19.408203125 4.778125  C 18.5546875 5.56875  17.87744140625 6.50546875  17.37646484375 7.58828125  C 16.87548828125 8.67109375  16.625 9.80833333333333  16.625 11  C 16.625 12.1916666666667  16.87548828125 13.32890625  17.37646484375 14.41171875  C 17.87744140625 15.49453125  18.5546875 16.43125  19.408203125 17.221875  C 20.26171875 18.0125  21.27294921875 18.63984375  22.44189453125 19.10390625  Z " fill-rule="nonzero" fill="#000000" stroke="none" transform="matrix(1 0 0 1 1452 1040 )" />
  </g>
</svg>