<?xml version="1.0" encoding="utf-8"?>
<svg version="1.1" xmlns:xlink="http://www.w3.org/1999/xlink" width="70px" height="70px" xmlns="http://www.w3.org/2000/svg">
  <g transform="matrix(1 0 0 1 -361 -700 )">
    <path d="M 396 704  C 413.36 704  427 717.64  427 735  C 427 752.36  413.36 766  396 766  C 378.64 766  365 752.36  365 735  C 365 717.64  378.64 704  396 704  Z " fill-rule="nonzero" fill="#ffffff" stroke="none" />
    <path d="M 396 702.5  C 414.2 702.5  428.5 716.8  428.5 735  C 428.5 753.2  414.2 767.5  396 767.5  C 377.8 767.5  363.5 753.2  363.5 735  C 363.5 716.8  377.8 702.5  396 702.5  Z " stroke-width="5" stroke="#000000" fill="none" />
  </g>
</svg>