<?xml version="1.0" encoding="utf-8"?>
<svg version="1.1" xmlns:xlink="http://www.w3.org/1999/xlink" width="48px" height="48px" xmlns="http://www.w3.org/2000/svg">
  <g transform="matrix(1 0 0 1 -373 -712 )">
    <path d="M 47.0454545454545 18.4090909090909  C 47.6818181818182 19.0454545454545  48 19.8181818181818  48 20.7272727272727  L 48 27.2727272727273  C 48 28.1818181818182  47.6818181818182 28.9545454545455  47.0454545454545 29.5909090909091  C 46.4090909090909 30.2272727272727  45.6363636363636 30.5454545454545  44.7272727272727 30  L 30 30  L 30 44.7272727272727  C 30.5454545454545 45.6363636363636  30.2272727272727 46.4090909090909  29.5909090909091 47.0454545454545  C 28.9545454545455 47.6818181818182  28.1818181818182 48  27.2727272727273 48  L 20.7272727272727 48  C 19.8181818181818 48  19.0454545454545 47.6818181818182  18.4090909090909 47.0454545454545  C 17.7727272727273 46.4090909090909  17.4545454545455 45.6363636363636  18 44.7272727272727  L 18 30  L 3.27272727272727 30  C 2.36363636363636 30.5454545454545  1.59090909090909 30.2272727272727  0.954545454545455 29.5909090909091  C 0.318181818181818 28.9545454545455  0 28.1818181818182  0 27.2727272727273  L 0 20.7272727272727  C 0 19.8181818181818  0.318181818181818 19.0454545454545  0.954545454545455 18.4090909090909  C 1.59090909090909 17.7727272727273  2.36363636363636 17.4545454545455  3.27272727272727 18  L 18 18  L 18 3.27272727272728  C 17.4545454545455 2.36363636363636  17.7727272727273 1.59090909090909  18.4090909090909 0.954545454545455  C 19.0454545454545 0.318181818181817  19.8181818181818 0  20.7272727272727 0  L 27.2727272727273 0  C 28.1818181818182 0  28.9545454545455 0.318181818181817  29.5909090909091 0.954545454545455  C 30.2272727272727 1.59090909090909  30.5454545454545 2.36363636363636  30 3.27272727272728  L 30 18  L 44.7272727272727 18  C 45.6363636363636 17.4545454545455  46.4090909090909 17.7727272727273  47.0454545454545 18.4090909090909  Z " fill-rule="nonzero" fill="#000000" stroke="none" transform="matrix(1 0 0 1 373 712 )" />
  </g>
</svg>