<?xml version="1.0" encoding="utf-8"?>
<svg version="1.1" xmlns:xlink="http://www.w3.org/1999/xlink" width="54px" height="54px" xmlns="http://www.w3.org/2000/svg">
  <g transform="matrix(1 0 0 1 -417 -796 )">
    <path d="M 52.9261363636364 20.7102272727273  C 53.6420454545455 21.4261363636364  54 22.2954545454545  54 23.3181818181818  L 54 30.6818181818182  C 54 31.7045454545455  53.6420454545455 32.5738636363636  52.9261363636364 33.2897727272727  C 52.2102272727273 34.0056818181818  51.3409090909091 34.3636363636364  50.3181818181818 34  L 34 34  L 34 50.3181818181818  C 34.3636363636364 51.3409090909091  34.0056818181818 52.2102272727273  33.2897727272727 52.9261363636364  C 32.5738636363636 53.6420454545455  31.7045454545455 54  30.6818181818182 54  L 23.3181818181818 54  C 22.2954545454545 54  21.4261363636364 53.6420454545455  20.7102272727273 52.9261363636364  C 19.9943181818182 52.2102272727273  19.6363636363636 51.3409090909091  20 50.3181818181818  L 20 34  L 3.68181818181818 34  C 2.65909090909091 34.3636363636364  1.78977272727273 34.0056818181818  1.07386363636364 33.2897727272727  C 0.357954545454545 32.5738636363636  0 31.7045454545455  0 30.6818181818182  L 0 23.3181818181818  C 0 22.2954545454545  0.357954545454545 21.4261363636364  1.07386363636364 20.7102272727273  C 1.78977272727273 19.9943181818182  2.65909090909091 19.6363636363636  3.68181818181818 20  L 20 20  L 20 3.68181818181818  C 19.6363636363636 2.65909090909091  19.9943181818182 1.78977272727272  20.7102272727273 1.07386363636364  C 21.4261363636364 0.357954545454544  22.2954545454545 0  23.3181818181818 0  L 30.6818181818182 0  C 31.7045454545455 0  32.5738636363636 0.357954545454544  33.2897727272727 1.07386363636364  C 34.0056818181818 1.78977272727272  34.3636363636364 2.65909090909091  34 3.68181818181818  L 34 20  L 50.3181818181818 20  C 51.3409090909091 19.6363636363636  52.2102272727273 19.9943181818182  52.9261363636364 20.7102272727273  Z " fill-rule="nonzero" fill="#000000" stroke="none" transform="matrix(1 0 0 1 417 796 )" />
  </g>
</svg>