<?xml version="1.0" encoding="utf-8"?>
<svg version="1.1" xmlns:xlink="http://www.w3.org/1999/xlink" width="48px" height="48px" xmlns="http://www.w3.org/2000/svg">
  <g transform="matrix(1 0 0 1 -102 -803 )">
    <path d="M 126 803  C 139.44 803  150 813.56  150 827  C 150 840.44  139.44 851  126 851  C 112.56 851  102 840.44  102 827  C 102 813.56  112.56 803  126 803  Z " fill-rule="nonzero" fill="#ffffff" stroke="none" />
    <path d="M 126 803.5  C 139.16 803.5  149.5 813.84  149.5 827  C 149.5 840.16  139.16 850.5  126 850.5  C 112.84 850.5  102.5 840.16  102.5 827  C 102.5 813.84  112.84 803.5  126 803.5  Z " stroke-width="1" stroke="#797979" fill="none" />
  </g>
</svg>