<?xml version="1.0" encoding="utf-8"?>
<svg version="1.1" xmlns:xlink="http://www.w3.org/1999/xlink" width="54px" height="54px" xmlns="http://www.w3.org/2000/svg">
  <g transform="matrix(1 0 0 1 -266 -897 )">
    <path d="M 293 897  C 308.12 897  320 908.88  320 924  C 320 939.12  308.12 951  293 951  C 277.88 951  266 939.12  266 924  C 266 908.88  277.88 897  293 897  Z " fill-rule="nonzero" fill="#80ffff" stroke="none" />
    <path d="M 293 897.5  C 307.84 897.5  319.5 909.16  319.5 924  C 319.5 938.84  307.84 950.5  293 950.5  C 278.16 950.5  266.5 938.84  266.5 924  C 266.5 909.16  278.16 897.5  293 897.5  Z " stroke-width="1" stroke="#797979" fill="none" />
  </g>
</svg>