<?xml version="1.0" encoding="utf-8"?>
<svg version="1.1" xmlns:xlink="http://www.w3.org/1999/xlink" width="48px" height="30px" xmlns="http://www.w3.org/2000/svg">
  <g transform="matrix(1 0 0 1 -353 -383 )">
    <path d="M 1.1953125 20.82421875  C 0.3984375 18.97265625  0 17.03125  0 15  C 0 12.96875  0.3984375 11.02734375  1.1953125 9.17578125  C 1.9921875 7.32421875  3.05859375 5.73046875  4.39453125 4.39453125  C 5.73046875 3.05859375  7.32421875 1.9921875  9.17578125 1.1953125  C 11.02734375 0.398437500000001  12.96875 0  15 0  L 33 0  C 35.03125 0  36.97265625 0.398437500000001  38.82421875 1.1953125  C 40.67578125 1.9921875  42.26953125 3.05859375  43.60546875 4.39453125  C 44.94140625 5.73046875  46.0078125 7.32421875  46.8046875 9.17578125  C 47.6015625 11.02734375  48 12.96875  48 15  C 48 17.03125  47.6015625 18.97265625  46.8046875 20.82421875  C 46.0078125 22.67578125  44.94140625 24.26953125  43.60546875 25.60546875  C 42.26953125 26.94140625  40.67578125 28.0078125  38.82421875 28.8046875  C 36.97265625 29.6015625  35.03125 30  33 30  L 15 30  C 12.96875 30  11.02734375 29.6015625  9.17578125 28.8046875  C 7.32421875 28.0078125  5.73046875 26.94140625  4.39453125 25.60546875  C 3.05859375 24.26953125  1.9921875 22.67578125  1.1953125 20.82421875  Z M 28.34765625 26.05078125  C 29.82421875 26.68359375  31.375 27  33 27  C 34.625 27  36.17578125 26.68359375  37.65234375 26.05078125  C 39.12890625 25.41796875  40.40625 24.5625  41.484375 23.484375  C 42.5625 22.40625  43.41796875 21.12890625  44.05078125 19.65234375  C 44.68359375 18.17578125  45 16.625  45 15  C 45 13.375  44.68359375 11.82421875  44.05078125 10.34765625  C 43.41796875 8.87109375  42.5625 7.59375  41.484375 6.515625  C 40.40625 5.4375  39.12890625 4.58203125  37.65234375 3.94921875  C 36.17578125 3.31640625  34.625 3  33 3  C 31.375 3  29.82421875 3.31640625  28.34765625 3.94921875  C 26.87109375 4.58203125  25.59375 5.4375  24.515625 6.515625  C 23.4375 7.59375  22.58203125 8.87109375  21.94921875 10.34765625  C 21.31640625 11.82421875  21 13.375  21 15  C 21 16.625  21.31640625 18.17578125  21.94921875 19.65234375  C 22.58203125 21.12890625  23.4375 22.40625  24.515625 23.484375  C 25.59375 24.5625  26.87109375 25.41796875  28.34765625 26.05078125  Z " fill-rule="nonzero" fill="#000000" stroke="none" transform="matrix(1 0 0 1 353 383 )" />
  </g>
</svg>