<?xml version="1.0" encoding="utf-8"?>
<svg version="1.1" xmlns:xlink="http://www.w3.org/1999/xlink" width="54px" height="34px" xmlns="http://www.w3.org/2000/svg">
  <g transform="matrix(1 0 0 1 -394 -428 )">
    <path d="M 1.3447265625 23.60078125  C 0.4482421875 21.50234375  0 19.3020833333333  0 17  C 0 14.6979166666667  0.4482421875 12.49765625  1.3447265625 10.39921875  C 2.2412109375 8.30078125  3.44091796875 6.49453125  4.94384765625 4.98046875  C 6.44677734375 3.46640625  8.23974609375 2.2578125  10.32275390625 1.3546875  C 12.40576171875 0.451562500000001  14.58984375 0  16.875 0  L 37.125 0  C 39.41015625 0  41.59423828125 0.451562500000001  43.67724609375 1.3546875  C 45.76025390625 2.2578125  47.55322265625 3.46640625  49.05615234375 4.98046875  C 50.55908203125 6.49453125  51.7587890625 8.30078125  52.6552734375 10.39921875  C 53.5517578125 12.49765625  54 14.6979166666667  54 17  C 54 19.3020833333333  53.5517578125 21.50234375  52.6552734375 23.60078125  C 51.7587890625 25.69921875  50.55908203125 27.50546875  49.05615234375 29.01953125  C 47.55322265625 30.53359375  45.76025390625 31.7421875  43.67724609375 32.6453125  C 41.59423828125 33.5484375  39.41015625 34  37.125 34  L 16.875 34  C 14.58984375 34  12.40576171875 33.5484375  10.32275390625 32.6453125  C 8.23974609375 31.7421875  6.44677734375 30.53359375  4.94384765625 29.01953125  C 3.44091796875 27.50546875  2.2412109375 25.69921875  1.3447265625 23.60078125  Z M 31.89111328125 29.52421875  C 33.55224609375 30.24140625  35.296875 30.6  37.125 30.6  C 38.953125 30.6  40.69775390625 30.24140625  42.35888671875 29.52421875  C 44.02001953125 28.80703125  45.45703125 27.8375  46.669921875 26.615625  C 47.8828125 25.39375  48.84521484375 23.94609375  49.55712890625 22.27265625  C 50.26904296875 20.59921875  50.625 18.8416666666667  50.625 17  C 50.625 15.1583333333333  50.26904296875 13.40078125  49.55712890625 11.72734375  C 48.84521484375 10.05390625  47.8828125 8.60625  46.669921875 7.384375  C 45.45703125 6.1625  44.02001953125 5.19296875  42.35888671875 4.47578125  C 40.69775390625 3.75859375  38.953125 3.4  37.125 3.4  C 35.296875 3.4  33.55224609375 3.75859375  31.89111328125 4.47578125  C 30.22998046875 5.19296875  28.79296875 6.1625  27.580078125 7.384375  C 26.3671875 8.60625  25.40478515625 10.05390625  24.69287109375 11.72734375  C 23.98095703125 13.40078125  23.625 15.1583333333333  23.625 17  C 23.625 18.8416666666667  23.98095703125 20.59921875  24.69287109375 22.27265625  C 25.40478515625 23.94609375  26.3671875 25.39375  27.580078125 26.615625  C 28.79296875 27.8375  30.22998046875 28.80703125  31.89111328125 29.52421875  Z " fill-rule="nonzero" fill="#000000" stroke="none" transform="matrix(1 0 0 1 394 428 )" />
  </g>
</svg>