<?xml version="1.0" encoding="utf-8"?>
<svg version="1.1" xmlns:xlink="http://www.w3.org/1999/xlink" width="30px" height="21px" xmlns="http://www.w3.org/2000/svg">
  <g transform="matrix(1 0 0 1 -183 -297 )">
    <path d="M 11.9063545150502 5.98333333333333  L 11.9063545150502 14.3666666666667  L 20 10.2  L 11.9063545150502 5.98333333333333  Z M 4.51505016722408 0.299999999999999  C 7.31326644370123 0.0999999999999996  10.8082497212932 0  15 0  C 16.8729096989967 0  18.6817168338907 0.0249999999999999  20.4264214046823 0.0749999999999997  C 22.1711259754738 0.125  23.4503901895206 0.177777777777776  24.2642140468227 0.233333333333333  L 25.4849498327759 0.299999999999999  C 25.4960981047938 0.299999999999999  25.5908584169454 0.308333333333332  25.7692307692308 0.324999999999999  C 25.9476031215162 0.341666666666668  26.0758082497213 0.358333333333334  26.1538461538462 0.375000000000001  C 26.231884057971 0.391666666666668  26.3628762541806 0.416666666666668  26.5468227424749 0.450000000000001  C 26.7307692307692 0.483333333333334  26.8896321070234 0.527777777777775  27.0234113712375 0.583333333333334  C 27.1571906354515 0.638888888888887  27.3132664437012 0.711111111111108  27.4916387959866 0.799999999999999  C 27.670011148272 0.888888888888887  27.8428093645485 0.997222222222222  28.0100334448161 1.125  C 28.1772575250836 1.25277777777777  28.3389074693423 1.4  28.494983277592 1.56666666666667  C 28.561872909699 1.63333333333333  28.6482720178372 1.73611111111111  28.7541806020067 1.875  C 28.8600891861761 2.01388888888889  29.0217391304348 2.33888888888889  29.2391304347826 2.85  C 29.4565217391304 3.36111111111111  29.6042363433668 3.92222222222222  29.6822742474916 4.53333333333333  C 29.7714604236343 5.24444444444444  29.8411371237458 6.00277777777778  29.8913043478261 6.80833333333333  C 29.9414715719064 7.61388888888889  29.9721293199554 8.24444444444444  29.9832775919732 8.7  L 29.9832775919732 9.36666666666667  L 29.9832775919732 11.6333333333333  C 29.9944258639911 13.2444444444444  29.8940914158305 14.8555555555556  29.6822742474916 16.4666666666667  C 29.6042363433668 17.0777777777778  29.4648829431438 17.6305555555556  29.2642140468227 18.125  C 29.0635451505017 18.6194444444444  28.8851727982163 18.9611111111111  28.7290969899666 19.15  L 28.494983277592 19.4333333333333  C 28.3389074693423 19.6  28.1772575250836 19.7472222222222  28.0100334448161 19.875  C 27.8428093645485 20.0027777777778  27.670011148272 20.1083333333333  27.4916387959866 20.1916666666667  C 27.3132664437012 20.275  27.1571906354515 20.3444444444444  27.0234113712375 20.4  C 26.8896321070234 20.4555555555556  26.7307692307692 20.5  26.5468227424749 20.5333333333333  C 26.3628762541806 20.5666666666667  26.2290969899666 20.5916666666667  26.1454849498328 20.6083333333333  C 26.061872909699 20.625  25.9336677814939 20.6416666666667  25.7608695652174 20.6583333333333  C 25.5880713489409 20.675  25.4960981047938 20.6833333333333  25.4849498327759 20.6833333333333  C 22.6867335562988 20.8944444444444  19.1917502787068 21  15 21  C 12.6923076923077 20.9777777777778  10.6884057971014 20.9416666666667  8.98829431438127 20.8916666666667  C 7.28818283166109 20.8416666666667  6.17056856187291 20.8  5.63545150501672 20.7666666666667  L 4.81605351170569 20.7  L 4.21404682274247 20.6333333333333  C 3.81270903010033 20.5777777777778  3.50891861761427 20.5222222222222  3.30267558528428 20.4666666666667  C 3.09643255295429 20.4111111111111  2.81215161649944 20.2944444444444  2.44983277591973 20.1166666666667  C 2.08751393534002 19.9388888888889  1.77257525083612 19.7111111111111  1.50501672240803 19.4333333333333  C 1.438127090301 19.3666666666667  1.35172798216276 19.2638888888889  1.24581939799331 19.125  C 1.13991081382386 18.9861111111111  0.978260869565217 18.6611111111111  0.760869565217391 18.15  C 0.543478260869565 17.6388888888889  0.395763656633222 17.0777777777778  0.317725752508361 16.4666666666667  C 0.228539576365663 15.7555555555556  0.158862876254181 14.9972222222222  0.108695652173913 14.1916666666667  C 0.0585284280936455 13.3861111111111  0.0278706800445931 12.7555555555556  0.0167224080267559 12.3  L 0.0167224080267559 11.6333333333333  L 0.0167224080267559 9.36666666666667  C 0.00557413600891862 7.75555555555555  0.105908584169454 6.14444444444444  0.317725752508361 4.53333333333333  C 0.395763656633222 3.92222222222222  0.535117056856187 3.36944444444444  0.735785953177257 2.875  C 0.936454849498328 2.38055555555555  1.11482720178372 2.03888888888889  1.27090301003344 1.85  L 1.50501672240803 1.56666666666667  C 1.66109253065775 1.4  1.82274247491639 1.25277777777777  1.98996655518395 1.125  C 2.1571906354515 0.997222222222222  2.32998885172798 0.888888888888887  2.50836120401338 0.799999999999999  C 2.68673355629877 0.711111111111108  2.84280936454849 0.638888888888887  2.97658862876254 0.583333333333334  C 3.11036789297659 0.527777777777775  3.26923076923077 0.483333333333334  3.45317725752508 0.450000000000001  C 3.6371237458194 0.416666666666668  3.76811594202899 0.391666666666668  3.84615384615385 0.375000000000001  C 3.92419175027871 0.358333333333334  4.05239687848384 0.341666666666668  4.23076923076923 0.324999999999999  C 4.40914158305463 0.308333333333332  4.50390189520624 0.299999999999999  4.51505016722408 0.299999999999999  Z " fill-rule="nonzero" fill="#000000" stroke="none" transform="matrix(1 0 0 1 183 297 )" />
  </g>
</svg>