<?xml version="1.0" encoding="utf-8"?>
<svg version="1.1" xmlns:xlink="http://www.w3.org/1999/xlink" width="96px" height="40px" xmlns="http://www.w3.org/2000/svg">
  <g transform="matrix(1 0 0 1 -151 -203 )">
    <path d="M 151 203  L 247 203  L 247 243  L 151 243  L 151 203  " fill-rule="nonzero" fill="#cccccc" stroke="none" />
    <path d="M 154 206  L 244 206  L 244 240  L 154 240  L 154 206  " fill-rule="nonzero" fill="#ffffff" stroke="none" />
    <path d="M 203.92 215  C 202.24 215  200.92 213.68  200.92 212  C 200.92 210.32  202.24 209  203.92 209  C 205.6 209  206.92 210.32  206.92 212  C 206.92 213.68  205.6 215  203.92 215  " fill-rule="nonzero" fill="#cccccc" stroke="none" />
    <path d="M 155 239  L 155 221.4  L 177 213.4  L 207.8 231  L 225.4 218.2  L 243 231  L 243 239  L 155 239  " fill-rule="nonzero" fill="#169bd5" stroke="none" />
  </g>
</svg>