<?xml version="1.0" encoding="utf-8"?>
<svg version="1.1" xmlns:xlink="http://www.w3.org/1999/xlink" width="26px" height="26px" xmlns="http://www.w3.org/2000/svg">
  <g transform="matrix(1 0 0 1 -137 -128 )">
    <path d="M 5.4503351614869 21.980523432745  C 5.65102579727808 21.7800770947454  5.75137111517367 21.5427064313248  5.75137111517367 21.2684114424833  C 5.75137111517367 20.9941164536417  5.65102579727808 20.7567457902211  5.4503351614869 20.5562994522215  C 5.24964452569571 20.355853114222  5.01198456225879 20.2556299452222  4.73735527117611 20.2556299452222  C 4.46272598009344 20.2556299452222  4.22506601665651 20.355853114222  4.02437538086533 20.5562994522215  C 3.82368474507414 20.7567457902211  3.72333942717855 20.9941164536417  3.72333942717855 21.2684114424833  C 3.72333942717855 21.5427064313248  3.82368474507414 21.7800770947454  4.02437538086533 21.980523432745  C 4.22506601665651 22.1809697707446  4.46272598009344 22.2811929397444  4.73735527117611 22.2811929397444  C 5.01198456225879 22.2811929397444  5.24964452569571 22.1809697707446  5.4503351614869 21.980523432745  Z M 13.205971968312 12.8101034692635  C 14.0034531789559 13.6066139176304  14.9197643713183 14.2105903834449  15.9549055453991 14.6220328667072  L 5.14929920780012 25.4144856968959  C 4.7584806012594 25.804828565632  4.28316067438554 26  3.72333942717855 26  C 3.1740808450132 26  2.69347958561853 25.804828565632  2.28153564899452 25.4144856968959  L 0.602071907373553 23.7054169202678  C 0.200690635791184 23.3256238587949  0 22.8508825319537  0 22.2811929397444  C 0 21.7220531547981  0.200690635791184 21.2420369243254  0.602071907373553 20.8411442483262  L 11.3918342474101 10.0645161290323  C 11.8037781840341 11.0983972408196  12.4084907576681 12.0135930208967  13.205971968312 12.8101034692635  Z M 25.8653260207191 7.34266585514303  C 25.955108673573 7.44816392777439  26 7.5800365185636  26 7.73828362751065  C 26 8.14972611077298  25.8785293520211 8.70886589571921  25.6355880560634 9.41570298234936  C 25.1391427991062 10.8293771556097  24.2703635994312 11.9766686954758  23.0292504570384 12.8575776019477  C 21.7881373146455 13.7384865084196  20.4229128580134 14.1789409616555  18.933577087142 14.1789409616555  C 16.9794840544384 14.1789409616555  15.3079423115986 13.4852911341043  13.9189518586228 12.0979914790018  C 12.529961405647 10.7106918238994  11.835466179159 9.04118482450801  11.835466179159 7.08947048082775  C 11.835466179159 5.13775613714749  12.529961405647 3.46824913775614  13.9189518586228 2.08094948265368  C 15.3079423115986 0.693649827551226  16.9794840544384 0  18.933577087142 0  C 19.5462116595572 0  20.1878935608369 0.0870359099208777  20.8586227909811 0.26110772976263  C 21.5293520211253 0.435179549604383  22.0970952671135 0.680462568472307  22.5618525289458 0.996956786366404  C 22.730855169612 1.1130046662609  22.8153564899452 1.26070196794481  22.8153564899452 1.44004869141814  C 22.8153564899452 1.61939541489146  22.730855169612 1.76709271657537  22.5618525289458 1.88314059646987  L 17.9195612431444 4.55751673767498  L 17.9195612431444 8.10225197808886  L 20.9774527726996 9.79549604382228  C 21.0302660979078 9.76384662203287  21.4474913670526 9.5080137959018  22.2291285801341 9.02799756542909  C 23.0107657932155 8.54798133495638  23.7263863497867 8.12071414079935  24.3759902498477 7.746195982958  C 25.0255941499086 7.37167782511666  25.3979280926264 7.18441874619598  25.4929920780012 7.18441874619598  C 25.6514320536258 7.18441874619598  25.7755433678651 7.23716778251167  25.8653260207191 7.34266585514303  Z " fill-rule="nonzero" fill="#000000" stroke="none" transform="matrix(1 0 0 1 137 128 )" />
  </g>
</svg>