<?xml version="1.0" encoding="utf-8"?>
<svg version="1.1" xmlns:xlink="http://www.w3.org/1999/xlink" width="19px" height="29px" xmlns="http://www.w3.org/2000/svg">
  <g transform="matrix(1 0 0 1 -140 -467 )">
    <path d="M 12.96044921875 6.75911458333333  C 13.42431640625 7.23741319444444  13.65625 7.80381944444444  13.65625 8.45833333333333  C 13.65625 8.62196180555555  13.5974934895833 8.76356336805555  13.47998046875 8.88313802083333  C 13.3624674479167 9.00271267361111  13.2233072916667 9.0625  13.0625 9.0625  C 12.9016927083333 9.0625  12.7625325520833 9.00271267361111  12.64501953125 8.88313802083333  C 12.5275065104167 8.76356336805555  12.46875 8.62196180555555  12.46875 8.45833333333333  C 12.46875 7.87934027777778  12.134765625 7.43250868055555  11.466796875 7.11783854166667  C 10.798828125 6.80316840277778  10.1432291666667 6.64583333333333  9.5 6.64583333333333  C 9.33919270833333 6.64583333333333  9.20003255208333 6.58604600694444  9.08251953125 6.46647135416667  C 8.96500651041667 6.34689670138888  8.90625 6.20529513888888  8.90625 6.04166666666667  C 8.90625 5.87803819444444  8.96500651041667 5.73643663194444  9.08251953125 5.61686197916667  C 9.20003255208333 5.49728732638888  9.33919270833333 5.4375  9.5 5.4375  C 10.1184895833333 5.4375  10.73388671875 5.53819444444444  11.34619140625 5.73958333333333  C 11.95849609375 5.94097222222222  12.49658203125 6.28081597222222  12.96044921875 6.75911458333333  Z M 15.36328125 11.8567708333333  C 16.2044270833333 10.8624131944444  16.625 9.72960069444444  16.625 8.45833333333333  C 16.625 7.55208333333333  16.41162109375 6.70876736111111  15.98486328125 5.92838541666667  C 15.55810546875 5.14800347222222  15.00146484375 4.50922309027778  14.31494140625 4.01204427083333  C 13.62841796875 3.51486545138888  12.86767578125 3.12467447916667  12.03271484375 2.84147135416667  C 11.19775390625 2.55826822916667  10.353515625 2.41666666666667  9.5 2.41666666666667  C 8.646484375 2.41666666666667  7.80224609375 2.55826822916667  6.96728515625 2.84147135416667  C 6.13232421875 3.12467447916667  5.37158203125 3.51486545138888  4.68505859375 4.01204427083333  C 3.99853515625 4.50922309027778  3.44189453125 5.14800347222222  3.01513671875 5.92838541666667  C 2.58837890625 6.70876736111111  2.375 7.55208333333333  2.375 8.45833333333333  C 2.375 9.72960069444444  2.79557291666667 10.8624131944444  3.63671875 11.8567708333333  C 3.76041666666667 11.9952256944444  3.94905598958333 12.2029079861111  4.20263671875 12.4798177083333  C 4.45621744791667 12.7567274305556  4.64485677083333 12.9644097222222  4.7685546875 13.1028645833333  C 6.35188802083333 15.0286458333333  7.22395833333333 16.9040798611111  7.384765625 18.7291666666667  L 11.615234375 18.7291666666667  C 11.7760416666667 16.9040798611111  12.6481119791667 15.0286458333333  14.2314453125 13.1028645833333  C 14.3551432291667 12.9644097222222  14.5437825520833 12.7567274305556  14.79736328125 12.4798177083333  C 15.0509440104167 12.2029079861111  15.2395833333333 11.9952256944444  15.36328125 11.8567708333333  Z M 18.17431640625 4.97493489583333  C 18.7247721354167 6.05110677083333  19 7.21223958333333  19 8.45833333333333  C 19 10.4092881944444  18.3629557291667 12.0959201388889  17.0888671875 13.5182291666667  C 16.5322265625 14.1349826388889  16.0714518229167 14.6825086805556  15.70654296875 15.1608072916667  C 15.3416341145833 15.6391059027778  14.9736328125 16.2401258680556  14.6025390625 16.9638671875  C 14.2314453125 17.6876085069444  14.0211588541667 18.3641493055556  13.9716796875 18.9934895833333  C 14.5530598958333 19.3459201388889  14.84375 19.8619791666667  14.84375 20.5416666666667  C 14.84375 21.0073784722222  14.6891276041667 21.41015625  14.3798828125 21.75  C 14.6891276041667 22.08984375  14.84375 22.4926215277778  14.84375 22.9583333333333  C 14.84375 23.6128472222222  14.5654296875 24.1226128472222  14.0087890625 24.4876302083333  C 14.1695963541667 24.7771267361111  14.25 25.0729166666667  14.25 25.375  C 14.25 25.9539930555556  14.05517578125 26.4008246527778  13.66552734375 26.7154947916667  C 13.27587890625 27.0301649305556  12.7965494791667 27.1875  12.2275390625 27.1875  C 11.9801432291667 27.7413194444444  11.6090494791667 28.1818576388889  11.1142578125 28.5091145833333  C 10.6194661458333 28.8363715277778  10.0813802083333 29  9.5 29  C 8.91861979166667 29  8.38053385416667 28.8363715277778  7.8857421875 28.5091145833333  C 7.39095052083333 28.1818576388889  7.01985677083333 27.7413194444444  6.7724609375 27.1875  C 6.20345052083333 27.1875  5.72412109375 27.0301649305556  5.33447265625 26.7154947916667  C 4.94482421875 26.4008246527778  4.75 25.9539930555556  4.75 25.375  C 4.75 25.0729166666667  4.83040364583333 24.7771267361111  4.9912109375 24.4876302083333  C 4.4345703125 24.1226128472222  4.15625 23.6128472222222  4.15625 22.9583333333333  C 4.15625 22.4926215277778  4.31087239583333 22.08984375  4.6201171875 21.75  C 4.31087239583333 21.41015625  4.15625 21.0073784722222  4.15625 20.5416666666667  C 4.15625 19.8619791666667  4.44694010416667 19.3459201388889  5.0283203125 18.9934895833333  C 4.97884114583333 18.3641493055556  4.7685546875 17.6876085069444  4.3974609375 16.9638671875  C 4.0263671875 16.2401258680556  3.65836588541667 15.6391059027778  3.29345703125 15.1608072916667  C 2.92854817708333 14.6825086805556  2.4677734375 14.1349826388889  1.9111328125 13.5182291666667  C 0.637044270833333 12.0959201388889  0 10.4092881944444  0 8.45833333333333  C 0 7.21223958333333  0.275227864583333 6.05110677083333  0.82568359375 4.97493489583333  C 1.37613932291667 3.89876302083333  2.09977213541667 3.00509982638888  2.99658203125 2.2939453125  C 3.89339192708333 1.58279079861111  4.90771484375 1.02267795138888  6.03955078125 0.613606770833332  C 7.17138671875 0.204535590277776  8.32486979166667 0  9.5 0  C 10.6751302083333 0  11.82861328125 0.204535590277776  12.96044921875 0.613606770833332  C 14.09228515625 1.02267795138888  15.1066080729167 1.58279079861111  16.00341796875 2.2939453125  C 16.9002278645833 3.00509982638888  17.6238606770833 3.89876302083333  18.17431640625 4.97493489583333  Z " fill-rule="nonzero" fill="#000000" stroke="none" transform="matrix(1 0 0 1 140 467 )" />
  </g>
</svg>