<?xml version="1.0" encoding="utf-8"?>
<svg version="1.1" xmlns:xlink="http://www.w3.org/1999/xlink" width="27px" height="27px" xmlns="http://www.w3.org/2000/svg">
  <g transform="matrix(1 0 0 1 -135 -583 )">
    <path d="M 15.310546875 18.439453125  C 15.416015625 18.544921875  15.46875 18.6796875  15.46875 18.84375  L 15.46875 21.65625  C 15.46875 21.8203125  15.416015625 21.955078125  15.310546875 22.060546875  C 15.205078125 22.166015625  15.0703125 22.21875  14.90625 22.21875  L 12.09375 22.21875  C 11.9296875 22.21875  11.794921875 22.166015625  11.689453125 22.060546875  C 11.583984375 21.955078125  11.53125 21.8203125  11.53125 21.65625  L 11.53125 18.84375  C 11.53125 18.6796875  11.583984375 18.544921875  11.689453125 18.439453125  C 11.794921875 18.333984375  11.9296875 18.28125  12.09375 18.28125  L 14.90625 18.28125  C 15.0703125 18.28125  15.205078125 18.333984375  15.310546875 18.439453125  Z M 18.0439453125 6.3544921875  C 19.3271484375 7.4033203125  19.96875 8.66015625  19.96875 10.125  C 19.96875 10.7109375  19.880859375 11.23828125  19.705078125 11.70703125  C 19.529296875 12.17578125  19.2626953125 12.580078125  18.9052734375 12.919921875  C 18.5478515625 13.259765625  18.2431640625 13.517578125  17.9912109375 13.693359375  C 17.7392578125 13.869140625  17.390625 14.080078125  16.9453125 14.326171875  C 16.5703125 14.537109375  16.2978515625 14.701171875  16.1279296875 14.818359375  C 15.9580078125 14.935546875  15.8056640625 15.076171875  15.6708984375 15.240234375  C 15.5361328125 15.404296875  15.46875 15.57421875  15.46875 15.75  L 15.46875 16.3125  C 15.46875 16.4765625  15.416015625 16.611328125  15.310546875 16.716796875  C 15.205078125 16.822265625  15.0703125 16.875  14.90625 16.875  L 12.09375 16.875  C 11.9296875 16.875  11.794921875 16.822265625  11.689453125 16.716796875  C 11.583984375 16.611328125  11.53125 16.4765625  11.53125 16.3125  L 11.53125 15.1171875  C 11.53125 14.70703125  11.5927734375 14.3291015625  11.7158203125 13.9833984375  C 11.8388671875 13.6376953125  11.9794921875 13.359375  12.1376953125 13.1484375  C 12.2958984375 12.9375  12.5244140625 12.7294921875  12.8232421875 12.5244140625  C 13.1220703125 12.3193359375  13.3623046875 12.169921875  13.5439453125 12.076171875  C 13.7255859375 11.982421875  13.986328125 11.859375  14.326171875 11.70703125  C 14.947265625 11.4140625  15.38671875 11.162109375  15.64453125 10.951171875  C 15.90234375 10.740234375  16.03125 10.453125  16.03125 10.08984375  C 16.03125 9.59765625  15.7763671875 9.1787109375  15.2666015625 8.8330078125  C 14.7568359375 8.4873046875  14.197265625 8.314453125  13.587890625 8.314453125  C 12.931640625 8.314453125  12.375 8.47265625  11.91796875 8.7890625  C 11.578125 9.0234375  11.109375 9.509765625  10.51171875 10.248046875  C 10.40625 10.388671875  10.259765625 10.458984375  10.072265625 10.458984375  C 9.943359375 10.458984375  9.83203125 10.423828125  9.73828125 10.353515625  L 7.83984375 8.912109375  C 7.72265625 8.830078125  7.65234375 8.712890625  7.62890625 8.560546875  C 7.60546875 8.408203125  7.634765625 8.2734375  7.716796875 8.15625  C 9.146484375 5.90625  11.19140625 4.78125  13.8515625 4.78125  C 15.36328125 4.78125  16.7607421875 5.3056640625  18.0439453125 6.3544921875  Z M 17.8681640625 3.146484375  C 16.4794921875 2.548828125  15.0234375 2.25  13.5 2.25  C 11.9765625 2.25  10.5205078125 2.548828125  9.1318359375 3.146484375  C 7.7431640625 3.744140625  6.5478515625 4.5439453125  5.5458984375 5.5458984375  C 4.5439453125 6.5478515625  3.744140625 7.7431640625  3.146484375 9.1318359375  C 2.548828125 10.5205078125  2.25 11.9765625  2.25 13.5  C 2.25 15.0234375  2.548828125 16.4794921875  3.146484375 17.8681640625  C 3.744140625 19.2568359375  4.5439453125 20.4521484375  5.5458984375 21.4541015625  C 6.5478515625 22.4560546875  7.7431640625 23.255859375  9.1318359375 23.853515625  C 10.5205078125 24.451171875  11.9765625 24.75  13.5 24.75  C 15.0234375 24.75  16.4794921875 24.451171875  17.8681640625 23.853515625  C 19.2568359375 23.255859375  20.4521484375 22.4560546875  21.4541015625 21.4541015625  C 22.4560546875 20.4521484375  23.255859375 19.2568359375  23.853515625 17.8681640625  C 24.451171875 16.4794921875  24.75 15.0234375  24.75 13.5  C 24.75 11.9765625  24.451171875 10.5205078125  23.853515625 9.1318359375  C 23.255859375 7.7431640625  22.4560546875 6.5478515625  21.4541015625 5.5458984375  C 20.4521484375 4.5439453125  19.2568359375 3.744140625  17.8681640625 3.146484375  Z M 25.189453125 6.7236328125  C 26.396484375 8.7919921875  27 11.05078125  27 13.5  C 27 15.94921875  26.396484375 18.2080078125  25.189453125 20.2763671875  C 23.982421875 22.3447265625  22.3447265625 23.982421875  20.2763671875 25.189453125  C 18.2080078125 26.396484375  15.94921875 27  13.5 27  C 11.05078125 27  8.7919921875 26.396484375  6.7236328125 25.189453125  C 4.6552734375 23.982421875  3.017578125 22.3447265625  1.810546875 20.2763671875  C 0.603515625 18.2080078125  0 15.94921875  0 13.5  C 0 11.05078125  0.603515625 8.7919921875  1.810546875 6.7236328125  C 3.017578125 4.6552734375  4.6552734375 3.017578125  6.7236328125 1.810546875  C 8.7919921875 0.603515624999998  11.05078125 0  13.5 0  C 15.94921875 0  18.2080078125 0.603515624999998  20.2763671875 1.810546875  C 22.3447265625 3.017578125  23.982421875 4.6552734375  25.189453125 6.7236328125  Z " fill-rule="nonzero" fill="#000000" stroke="none" transform="matrix(1 0 0 1 135 583 )" />
  </g>
</svg>