<svg height="382pt" viewBox="-26 0 382 382.75281" width="382pt" xmlns="http://www.w3.org/2000/svg"><path d="m315.21875 79.953125c-3.199219 0-6-1.199219-8.398438-3.601563-26-26-58.402343-44-93.601562-52.796874-6.398438-1.601563-10.398438-8-8.800781-14.402344 1.601562-6.398438 8-10.398438 14.402343-8.800782 39.597657 9.601563 76 30.402344 104.800782 59.203126 4.796875 4.796874 4.796875 12.398437 0 16.796874-2.402344 2.402344-5.203125 3.601563-8.402344 3.601563zm0 0" fill="#444b54"/><path d="m14.417969 79.953125c-3.199219 0-6-1.199219-8.398438-3.601563-4.800781-4.796874-4.800781-12.398437 0-16.796874 28.800781-28.800782 65.199219-49.203126 104.800781-59.203126 6.398438-1.597656 12.800782 2.402344 14.398438 8.800782 1.601562 6.402344-2.398438 12.800781-8.800781 14.402344-35.199219 8.796874-67.597657 26.796874-93.597657 52.796874-2 2.402344-5.199218 3.601563-8.402343 3.601563zm0 0" fill="#444b54"/><path d="m317.621094 218.351562c0 84.390626-68.414063 152.800782-152.800782 152.800782-84.390624 0-152.800781-68.410156-152.800781-152.800782 0-84.386718 68.410157-152.796874 152.800781-152.796874 84.386719 0 152.800782 68.410156 152.800782 152.796874zm0 0" fill="#fff"/><path d="m164.820312 358.753906c-6.800781 0-12-5.199218-12-12 0-6.800781 5.199219-12 12-12 64.398438 0 116.800782-52.402344 116.800782-116.800781 0-6.800781 5.199218-12 12-12 6.796875 0 12 5.199219 12 12 0 77.601563-63.203125 140.800781-140.800782 140.800781zm0 0" fill="#adf9d2"/><g fill="#444b54"><path d="m289.621094 325.554688c25.597656-30 40-67.601563 40-107.203126 0-44-17.203125-85.199218-48.402344-116.398437-64-64-168.800781-64-232.800781 0-61.199219 61.199219-64 159.601563-8 224l-32 32.800781c-4.796875 4.800782-4.398438 12.398438.402343 16.800782 2.398438 2.398437 5.199219 3.597656 8.398438 3.597656s6.402344-1.199219 8.402344-3.597656l32-32.800782c30 26 67.597656 40 107.597656 40s78-14.402344 108-40.402344l36 33.203126c2.402344 2 5.199219 3.199218 8 3.199218 3.199219 0 6.402344-1.199218 8.800781-4 4.398438-4.800781 4.398438-12.402344-.800781-16.800781zm-224-8c-54.800782-54.800782-54.800782-144 0-198.800782 27.199218-27.601562 63.199218-41.199218 99.199218-41.199218s72 13.597656 99.597657 41.199218c26.402343 26.398438 41.203125 62 41.203125 99.597656 0 37.601563-14.800782 72.800782-41.203125 99.601563-26.398438 26.398437-62 41.199219-99.597657 41.199219-37.601562-.398438-72.800781-14.800782-99.199218-41.597656zm0 0"/><path d="m223.21875 230.351562h-58.398438c-6.800781 0-12-5.199218-12-12v-71.597656c0-6.800781 5.199219-12 12-12 6.800782 0 12 5.199219 12 12v59.597656h46.398438c6.800781 0 12 5.203126 12 12 0 6.800782-5.597656 12-12 12zm0 0"/></g></svg>