<?xml version="1.0" encoding="utf-8"?>
<svg version="1.1" xmlns:xlink="http://www.w3.org/1999/xlink" width="32px" height="15px" xmlns="http://www.w3.org/2000/svg">
  <g transform="matrix(1 0 0 1 -720 -405 )">
    <path d="M 7.5675870289928 0  C 3.38814679427022 0  0 3.35787514423987  0 7.50001781284664  C 0 11.6421605163118  3.38814679427022 14.9999999651411  7.5675870289928 14.9999999651411  C 7.74024269075892 14.9999999651411  7.91145862912958 14.993793181628  8.08123491445047 15  L 23.9187650855495 15  C 24.0885413356977 14.993793181628  24.2597573092411 15  24.4324129710072 15  C 28.6118891873835 15  32 11.6421605511705  32 7.50001784770529  C 32 3.35787514423987  28.6118891873835 0  24.4324129710072 0  C 24.2595413489731 0  24.0882174304684 0.00627817433405653  23.9182252200524 0  L 8.08177477994764 0  C 7.91178256953161 0.00627813947539835  7.74042263420043 0  7.5675870289928 0  Z M 23.8261565743465 13.9208383973485  C 20.248113735774 13.9208383973485  17.3475203196486 11.0461656808056  17.3475203196486 7.50001781284664  C 17.3475203196486 3.9538699448874  20.248113735774 1.07919722834436  23.8261565743465 1.07919722834436  C 27.4041994129191 1.07919722834436  30.3047928290446 3.9538699448874  30.3047928290446 7.50001781284664  C 30.3047928290446 11.0461656808056  27.4041994129191 13.9208383973485  23.8261565743465 13.9208383973485  Z " fill-rule="nonzero" fill="#1abc9c" stroke="none" transform="matrix(1 0 0 1 720 405 )" />
  </g>
</svg>