<?xml version="1.0" encoding="utf-8"?>
<svg version="1.1" xmlns:xlink="http://www.w3.org/1999/xlink" width="28px" height="52px" xmlns="http://www.w3.org/2000/svg">
  <g transform="matrix(1 0 0 1 -1051 -702 )">
    <path d="M 27.5189003436426 24.8016032064128  C 27.8396334478809 25.1489645958584  28 25.5484301937208  28 26  C 28 26.4515698062792  27.8396334478809 26.8510354041416  27.5189003436426 27.1983967935872  L 5.09965635738832 51.4789579158317  C 4.77892325315006 51.8263193052772  4.41008018327606 52  3.99312714776632 52  C 3.57617411225659 52  3.20733104238259 51.8263193052772  2.88659793814433 51.4789579158317  L 0.481099656357388 48.87374749499  C 0.16036655211913 48.5263861055444  0 48.126920507682  0 47.6753507014028  C 0 47.2237808951236  0.16036655211913 46.8243152972612  0.481099656357388 46.4769539078156  L 19.3883161512027 26  L 0.481099656357388 5.52304609218437  C 0.16036655211913 5.17568470273881  0 4.77621910487642  0 4.3246492985972  C 0 3.87307949231796  0.16036655211913 3.47361389445557  0.481099656357388 3.12625250501002  L 2.88659793814433 0.521042084168337  C 3.20733104238259 0.173680694722777  3.57617411225659 0  3.99312714776632 0  C 4.41008018327606 0  4.77892325315006 0.173680694722777  5.09965635738832 0.521042084168337  L 27.5189003436426 24.8016032064128  Z " fill-rule="nonzero" fill="#000000" stroke="none" transform="matrix(1 0 0 1 1051 702 )" />
  </g>
</svg>