<?xml version="1.0" encoding="utf-8"?>
<svg version="1.1" xmlns:xlink="http://www.w3.org/1999/xlink" width="37px" height="23px" xmlns="http://www.w3.org/2000/svg">
  <g transform="matrix(1 0 0 1 -423 -225 )">
    <path d="M 0.92138671875 15.965234375  C 0.30712890625 14.545703125  0 13.0572916666667  0 11.5  C 0 9.94270833333333  0.30712890625 8.454296875  0.92138671875 7.034765625  C 1.53564453125 5.615234375  2.357666015625 4.393359375  3.387451171875 3.369140625  C 4.417236328125 2.344921875  5.645751953125 1.52734375  7.072998046875 0.916406249999999  C 8.500244140625 0.305468750000001  9.99674479166667 0  11.5625 0  L 25.4375 0  C 27.0032552083333 0  28.499755859375 0.305468750000001  29.927001953125 0.916406249999999  C 31.354248046875 1.52734375  32.582763671875 2.344921875  33.612548828125 3.369140625  C 34.642333984375 4.393359375  35.46435546875 5.615234375  36.07861328125 7.034765625  C 36.69287109375 8.454296875  37 9.94270833333333  37 11.5  C 37 13.0572916666667  36.69287109375 14.545703125  36.07861328125 15.965234375  C 35.46435546875 17.384765625  34.642333984375 18.606640625  33.612548828125 19.630859375  C 32.582763671875 20.655078125  31.354248046875 21.47265625  29.927001953125 22.08359375  C 28.499755859375 22.69453125  27.0032552083333 23  25.4375 23  L 11.5625 23  C 9.99674479166667 23  8.500244140625 22.69453125  7.072998046875 22.08359375  C 5.645751953125 21.47265625  4.417236328125 20.655078125  3.387451171875 19.630859375  C 2.357666015625 18.606640625  1.53564453125 17.384765625  0.92138671875 15.965234375  Z M 21.851318359375 19.972265625  C 22.989501953125 20.457421875  24.1848958333333 20.7  25.4375 20.7  C 26.6901041666667 20.7  27.885498046875 20.457421875  29.023681640625 19.972265625  C 30.161865234375 19.487109375  31.146484375 18.83125  31.9775390625 18.0046875  C 32.80859375 17.178125  33.468017578125 16.198828125  33.955810546875 15.066796875  C 34.443603515625 13.934765625  34.6875 12.7458333333333  34.6875 11.5  C 34.6875 10.2541666666667  34.443603515625 9.065234375  33.955810546875 7.933203125  C 33.468017578125 6.801171875  32.80859375 5.821875  31.9775390625 4.9953125  C 31.146484375 4.16875  30.161865234375 3.512890625  29.023681640625 3.027734375  C 27.885498046875 2.542578125  26.6901041666667 2.3  25.4375 2.3  C 24.1848958333333 2.3  22.989501953125 2.542578125  21.851318359375 3.027734375  C 20.713134765625 3.512890625  19.728515625 4.16875  18.8974609375 4.9953125  C 18.06640625 5.821875  17.406982421875 6.801171875  16.919189453125 7.933203125  C 16.431396484375 9.065234375  16.1875 10.2541666666667  16.1875 11.5  C 16.1875 12.7458333333333  16.431396484375 13.934765625  16.919189453125 15.066796875  C 17.406982421875 16.198828125  18.06640625 17.178125  18.8974609375 18.0046875  C 19.728515625 18.83125  20.713134765625 19.487109375  21.851318359375 19.972265625  Z " fill-rule="nonzero" fill="#000000" stroke="none" transform="matrix(1 0 0 1 423 225 )" />
  </g>
</svg>