<?xml version="1.0" encoding="utf-8"?>
<svg version="1.1" xmlns:xlink="http://www.w3.org/1999/xlink" width="139px" height="136px" xmlns="http://www.w3.org/2000/svg">
  <g transform="matrix(1 0 0 1 -244 -222 )">
    <path d="M 26 68  L 44 68  L 44 113  L 26 113  L 26 68  Z M 53 23  L 69 23  L 69 113  L 53 113  L 53 23  Z M 9 124  L 139 124  L 139 136  L 0 136  L 0 0  L 9 0  L 9 124  Z M 78 46  L 95 46  L 95 113  L 78 113  L 78 46  Z M 104 12  L 121 12  L 121 113  L 104 113  L 104 12  Z " fill-rule="nonzero" fill="#000000" stroke="none" transform="matrix(1 0 0 1 244 222 )" />
  </g>
</svg>