<?xml version="1.0" encoding="utf-8"?>
<svg version="1.1" xmlns:xlink="http://www.w3.org/1999/xlink" width="13px" height="12px" xmlns="http://www.w3.org/2000/svg">
  <defs>
    <filter x="181px" y="671px" width="13px" height="12px" filterUnits="userSpaceOnUse" id="filter205">
      <feOffset dx="0" dy="0" in="SourceAlpha" result="shadowOffsetInner" />
      <feGaussianBlur stdDeviation="2.5" in="shadowOffsetInner" result="shadowGaussian" />
      <feComposite in2="shadowGaussian" operator="atop" in="SourceAlpha" result="shadowComposite" />
      <feColorMatrix type="matrix" values="0 0 0 0 0  0 0 0 0 0  0 0 0 0 0  0 0 0 0.349019607843137 0  " in="shadowComposite" />
    </filter>
    <g id="widget206">
      <path d="M 2.9443359375 1.62152777777778  C 2.9814453125 1.66550925925926  3 1.71759259259259  3 1.77777777777778  C 3 1.83796296296296  2.9814453125 1.8900462962963  2.9443359375 1.93402777777778  C 2.9072265625 1.97800925925926  2.86328125 2  2.8125 2  L 0.1875 2  C 0.13671875 2  0.0927734375 1.97800925925926  0.0556640625 1.93402777777778  C 0.0185546875 1.8900462962963  0 1.83796296296296  0 1.77777777777778  C 0 1.71759259259259  0.0185546875 1.66550925925926  0.0556640625 1.62152777777778  L 1.3681640625 0.0659722222222223  C 1.4052734375 0.0219907407407405  1.44921875 0  1.5 0  C 1.55078125 0  1.5947265625 0.0219907407407405  1.6318359375 0.0659722222222223  L 2.9443359375 1.62152777777778  Z " fill-rule="nonzero" fill="#ffffff" stroke="none" fill-opacity="0" transform="matrix(1 0 0 1 186 676 )" />
    </g>
  </defs>
  <g transform="matrix(1 0 0 1 -181 -671 )">
    <use xlink:href="#widget206" filter="url(#filter205)" />
    <use xlink:href="#widget206" />
  </g>
</svg>