<?xml version="1.0" encoding="utf-8"?>
<svg version="1.1" xmlns:xlink="http://www.w3.org/1999/xlink" width="4px" height="2px" xmlns="http://www.w3.org/2000/svg">
  <g transform="matrix(1 0 0 1 -431 -689 )">
    <path d="M 3.92578125 0.0659722222222223  C 3.97526041666667 0.109953703703703  4 0.162037037037037  4 0.222222222222222  C 4 0.282407407407407  3.97526041666667 0.334490740740741  3.92578125 0.378472222222222  L 2.17578125 1.93402777777778  C 2.12630208333333 1.97800925925926  2.06770833333333 2  2 2  C 1.93229166666667 2  1.87369791666667 1.97800925925926  1.82421875 1.93402777777778  L 0.07421875 0.378472222222222  C 0.0247395833333333 0.334490740740741  0 0.282407407407407  0 0.222222222222222  C 0 0.162037037037037  0.0247395833333333 0.109953703703703  0.07421875 0.0659722222222223  C 0.123697916666667 0.0219907407407405  0.182291666666667 0  0.25 0  L 3.75 0  C 3.81770833333333 0  3.87630208333333 0.0219907407407405  3.92578125 0.0659722222222223  Z " fill-rule="nonzero" fill="#ffffff" stroke="none" fill-opacity="0" transform="matrix(1 0 0 1 431 689 )" />
  </g>
</svg>