<?xml version="1.0" encoding="utf-8"?>
<svg version="1.1" xmlns:xlink="http://www.w3.org/1999/xlink" width="33px" height="20px" xmlns="http://www.w3.org/2000/svg">
  <g transform="matrix(1 0 0 1 -413 -548 )">
    <path d="M 0.82177734375 13.8828125  C 0.27392578125 12.6484375  0 11.3541666666667  0 10  C 0 8.64583333333333  0.27392578125 7.3515625  0.82177734375 6.1171875  C 1.36962890625 4.8828125  2.102783203125 3.8203125  3.021240234375 2.9296875  C 3.939697265625 2.0390625  5.035400390625 1.328125  6.308349609375 0.796874999999999  C 7.581298828125 0.265625  8.916015625 0  10.3125 0  L 22.6875 0  C 24.083984375 0  25.418701171875 0.265625  26.691650390625 0.796874999999999  C 27.964599609375 1.328125  29.060302734375 2.0390625  29.978759765625 2.9296875  C 30.897216796875 3.8203125  31.63037109375 4.8828125  32.17822265625 6.1171875  C 32.72607421875 7.3515625  33 8.64583333333333  33 10  C 33 11.3541666666667  32.72607421875 12.6484375  32.17822265625 13.8828125  C 31.63037109375 15.1171875  30.897216796875 16.1796875  29.978759765625 17.0703125  C 29.060302734375 17.9609375  27.964599609375 18.671875  26.691650390625 19.203125  C 25.418701171875 19.734375  24.083984375 20  22.6875 20  L 10.3125 20  C 8.916015625 20  7.581298828125 19.734375  6.308349609375 19.203125  C 5.035400390625 18.671875  3.939697265625 17.9609375  3.021240234375 17.0703125  C 2.102783203125 16.1796875  1.36962890625 15.1171875  0.82177734375 13.8828125  Z M 19.489013671875 17.3671875  C 20.504150390625 17.7890625  21.5703125 18  22.6875 18  C 23.8046875 18  24.870849609375 17.7890625  25.885986328125 17.3671875  C 26.901123046875 16.9453125  27.779296875 16.375  28.5205078125 15.65625  C 29.26171875 14.9375  29.849853515625 14.0859375  30.284912109375 13.1015625  C 30.719970703125 12.1171875  30.9375 11.0833333333333  30.9375 10  C 30.9375 8.91666666666667  30.719970703125 7.8828125  30.284912109375 6.8984375  C 29.849853515625 5.9140625  29.26171875 5.0625  28.5205078125 4.34375  C 27.779296875 3.625  26.901123046875 3.0546875  25.885986328125 2.6328125  C 24.870849609375 2.2109375  23.8046875 2  22.6875 2  C 21.5703125 2  20.504150390625 2.2109375  19.489013671875 2.6328125  C 18.473876953125 3.0546875  17.595703125 3.625  16.8544921875 4.34375  C 16.11328125 5.0625  15.525146484375 5.9140625  15.090087890625 6.8984375  C 14.655029296875 7.8828125  14.4375 8.91666666666667  14.4375 10  C 14.4375 11.0833333333333  14.655029296875 12.1171875  15.090087890625 13.1015625  C 15.525146484375 14.0859375  16.11328125 14.9375  16.8544921875 15.65625  C 17.595703125 16.375  18.473876953125 16.9453125  19.489013671875 17.3671875  Z " fill-rule="nonzero" fill="#000000" stroke="none" transform="matrix(1 0 0 1 413 548 )" />
  </g>
</svg>