<?xml version="1.0" encoding="utf-8"?>
<svg version="1.1" xmlns:xlink="http://www.w3.org/1999/xlink" width="33px" height="20px" xmlns="http://www.w3.org/2000/svg">
  <g transform="matrix(1 0 0 1 -413 -613 )">
    <path d="M 17.909912109375 13.1015625  C 18.344970703125 12.1171875  18.5625 11.0833333333333  18.5625 10  C 18.5625 8.91666666666667  18.344970703125 7.8828125  17.909912109375 6.8984375  C 17.474853515625 5.9140625  16.88671875 5.0625  16.1455078125 4.34375  C 15.404296875 3.625  14.526123046875 3.0546875  13.510986328125 2.6328125  C 12.495849609375 2.2109375  11.4296875 2  10.3125 2  C 9.1953125 2  8.129150390625 2.2109375  7.114013671875 2.6328125  C 6.098876953125 3.0546875  5.220703125 3.625  4.4794921875 4.34375  C 3.73828125 5.0625  3.150146484375 5.9140625  2.715087890625 6.8984375  C 2.280029296875 7.8828125  2.0625 8.91666666666667  2.0625 10  C 2.0625 11.0833333333333  2.280029296875 12.1171875  2.715087890625 13.1015625  C 3.150146484375 14.0859375  3.73828125 14.9375  4.4794921875 15.65625  C 5.220703125 16.375  6.098876953125 16.9453125  7.114013671875 17.3671875  C 8.129150390625 17.7890625  9.1953125 18  10.3125 18  C 11.4296875 18  12.495849609375 17.7890625  13.510986328125 17.3671875  C 14.526123046875 16.9453125  15.404296875 16.375  16.1455078125 15.65625  C 16.88671875 14.9375  17.474853515625 14.0859375  17.909912109375 13.1015625  Z M 30.284912109375 13.1015625  C 30.719970703125 12.1171875  30.9375 11.0833333333333  30.9375 10  C 30.9375 8.91666666666667  30.719970703125 7.8828125  30.284912109375 6.8984375  C 29.849853515625 5.9140625  29.26171875 5.0625  28.5205078125 4.34375  C 27.779296875 3.625  26.901123046875 3.0546875  25.885986328125 2.6328125  C 24.870849609375 2.2109375  23.8046875 2  22.6875 2  L 16.4677734375 2  C 17.74609375 2.9375  18.758544921875 4.10416666666666  19.505126953125 5.5  C 20.251708984375 6.89583333333333  20.625 8.39583333333333  20.625 10  C 20.625 11.6041666666667  20.251708984375 13.1041666666667  19.505126953125 14.5  C 18.758544921875 15.8958333333333  17.74609375 17.0625  16.4677734375 18  L 22.6875 18  C 23.8046875 18  24.870849609375 17.7890625  25.885986328125 17.3671875  C 26.901123046875 16.9453125  27.779296875 16.375  28.5205078125 15.65625  C 29.26171875 14.9375  29.849853515625 14.0859375  30.284912109375 13.1015625  Z M 32.17822265625 6.1171875  C 32.72607421875 7.3515625  33 8.64583333333333  33 10  C 33 11.3541666666667  32.72607421875 12.6484375  32.17822265625 13.8828125  C 31.63037109375 15.1171875  30.897216796875 16.1796875  29.978759765625 17.0703125  C 29.060302734375 17.9609375  27.964599609375 18.671875  26.691650390625 19.203125  C 25.418701171875 19.734375  24.083984375 20  22.6875 20  L 10.3125 20  C 8.916015625 20  7.581298828125 19.734375  6.308349609375 19.203125  C 5.035400390625 18.671875  3.939697265625 17.9609375  3.021240234375 17.0703125  C 2.102783203125 16.1796875  1.36962890625 15.1171875  0.82177734375 13.8828125  C 0.27392578125 12.6484375  0 11.3541666666667  0 10  C 0 8.64583333333333  0.27392578125 7.3515625  0.82177734375 6.1171875  C 1.36962890625 4.8828125  2.102783203125 3.8203125  3.021240234375 2.9296875  C 3.939697265625 2.0390625  5.035400390625 1.328125  6.308349609375 0.796874999999999  C 7.581298828125 0.265625  8.916015625 0  10.3125 0  L 22.6875 0  C 24.083984375 0  25.418701171875 0.265625  26.691650390625 0.796874999999999  C 27.964599609375 1.328125  29.060302734375 2.0390625  29.978759765625 2.9296875  C 30.897216796875 3.8203125  31.63037109375 4.8828125  32.17822265625 6.1171875  Z " fill-rule="nonzero" fill="#000000" stroke="none" transform="matrix(1 0 0 1 413 613 )" />
  </g>
</svg>