<?xml version="1.0" encoding="utf-8"?>
<svg version="1.1" xmlns:xlink="http://www.w3.org/1999/xlink" width="27px" height="27px" xmlns="http://www.w3.org/2000/svg">
  <g transform="matrix(1 0 0 1 -439 -113 )">
    <path d="M 6.75 18  L 6.75 24.75  L 20.25 24.75  L 20.25 18  L 6.75 18  Z M 22.5 17.4375  L 22.5 24.75  L 24.75 24.75  L 24.75 9  C 24.75 8.8359375  24.69140625 8.6103515625  24.57421875 8.3232421875  C 24.45703125 8.0361328125  24.33984375 7.833984375  24.22265625 7.716796875  L 19.283203125 2.77734375  C 19.166015625 2.66015625  18.966796875 2.54296875  18.685546875 2.42578125  C 18.404296875 2.30859375  18.17578125 2.25  18 2.25  L 18 9.5625  C 18 10.03125  17.8359375 10.4296875  17.5078125 10.7578125  C 17.1796875 11.0859375  16.78125 11.25  16.3125 11.25  L 6.1875 11.25  C 5.71875 11.25  5.3203125 11.0859375  4.9921875 10.7578125  C 4.6640625 10.4296875  4.5 10.03125  4.5 9.5625  L 4.5 2.25  L 2.25 2.25  L 2.25 24.75  L 4.5 24.75  L 4.5 17.4375  C 4.5 16.96875  4.6640625 16.5703125  4.9921875 16.2421875  C 5.3203125 15.9140625  5.71875 15.75  6.1875 15.75  L 20.8125 15.75  C 21.28125 15.75  21.6796875 15.9140625  22.0078125 16.2421875  C 22.3359375 16.5703125  22.5 16.96875  22.5 17.4375  Z M 15.5830078125 8.8330078125  C 15.6943359375 8.7216796875  15.75 8.58984375  15.75 8.4375  L 15.75 2.8125  C 15.75 2.66015625  15.6943359375 2.5283203125  15.5830078125 2.4169921875  C 15.4716796875 2.3056640625  15.33984375 2.25  15.1875 2.25  L 11.8125 2.25  C 11.66015625 2.25  11.5283203125 2.3056640625  11.4169921875 2.4169921875  C 11.3056640625 2.5283203125  11.25 2.66015625  11.25 2.8125  L 11.25 8.4375  C 11.25 8.58984375  11.3056640625 8.7216796875  11.4169921875 8.8330078125  C 11.5283203125 8.9443359375  11.66015625 9  11.8125 9  L 15.1875 9  C 15.33984375 9  15.4716796875 8.9443359375  15.5830078125 8.8330078125  Z M 26.6484375 7.453125  C 26.8828125 8.015625  27 8.53125  27 9  L 27 25.3125  C 27 25.78125  26.8359375 26.1796875  26.5078125 26.5078125  C 26.1796875 26.8359375  25.78125 27  25.3125 27  L 1.6875 27  C 1.21875 27  0.8203125 26.8359375  0.4921875 26.5078125  C 0.1640625 26.1796875  0 25.78125  0 25.3125  L 0 1.6875  C 0 1.21875  0.1640625 0.820312499999996  0.4921875 0.492187499999999  C 0.8203125 0.164062499999999  1.21875 0  1.6875 0  L 18 0  C 18.46875 0  18.984375 0.117187499999997  19.546875 0.351562500000001  C 20.109375 0.585937499999999  20.5546875 0.867187499999998  20.8828125 1.1953125  L 25.8046875 6.1171875  C 26.1328125 6.4453125  26.4140625 6.890625  26.6484375 7.453125  Z " fill-rule="nonzero" fill="#000000" stroke="none" transform="matrix(1 0 0 1 439 113 )" />
  </g>
</svg>