<?xml version="1.0" encoding="utf-8"?>
<svg version="1.1" xmlns:xlink="http://www.w3.org/1999/xlink" width="19px" height="27px" xmlns="http://www.w3.org/2000/svg">
  <g transform="matrix(1 0 0 1 -135 -113 )">
    <path d="M 18.6735395189003 1.62324649298597  C 18.8911798396335 1.80360721442885  19 2.01102204408817  19 2.24549098196393  C 19 2.47995991983968  18.8911798396335 2.687374749499  18.6735395189003 2.86773547094188  L 5.84364261168385 13.5  L 18.6735395189003 24.1322645290581  C 18.8911798396335 24.312625250501  19 24.5200400801603  19 24.7545090180361  C 19 24.9889779559118  18.8911798396335 25.1963927855711  18.6735395189003 25.376753507014  L 17.0412371134021 26.7294589178357  C 16.823596792669 26.9098196392786  16.5733104238259 27  16.2903780068729 27  C 16.0074455899198 27  15.7571592210767 26.9098196392786  15.5395189003436 26.7294589178357  L 0.326460481099656 14.122244488978  C 0.108820160366552 13.9418837675351  0 13.7344689378758  0 13.5  C 0 13.2655310621242  0.108820160366552 13.0581162324649  0.326460481099656 12.877755511022  L 15.5395189003436 0.270541082164329  C 15.7571592210767 0.090180360721442  16.0074455899198 0  16.2903780068729 0  C 16.5733104238259 0  16.823596792669 0.090180360721442  17.0412371134021 0.270541082164329  L 18.6735395189003 1.62324649298597  Z " fill-rule="nonzero" fill="#000000" stroke="none" transform="matrix(1 0 0 1 135 113 )" />
  </g>
</svg>